<mxfile host="app.diagrams.net" agent="Mozilla/5.0 (Windows NT 10.0; Win64; x64) AppleWebKit/537.36 (KHTML, like Gecko) Chrome/130.0.0.0 YaBrowser/24.12.0.0 Safari/537.36" version="25.0.3">
  <diagram name="Page-1" id="T10DW3ObnOzF1mfJe_60">
    <mxGraphModel dx="1403" dy="2240" grid="1" gridSize="10" guides="1" tooltips="1" connect="1" arrows="1" fold="1" page="1" pageScale="1" pageWidth="827" pageHeight="1169" math="0" shadow="0">
      <root>
        <mxCell id="0" />
        <mxCell id="1" parent="0" />
        <mxCell id="HZIiBSOwdoPRaEt3oadx-533" value="Category" style="swimlane;fontStyle=0;childLayout=stackLayout;horizontal=1;startSize=26;fillColor=default;horizontalStack=0;resizeParent=1;resizeLast=0;collapsible=1;marginBottom=0;swimlaneFillColor=default;align=center;" vertex="1" parent="1">
          <mxGeometry x="40" y="40" width="160" height="130" as="geometry" />
        </mxCell>
        <mxCell id="HZIiBSOwdoPRaEt3oadx-534" value="CategoryID" style="shape=partialRectangle;top=0;left=0;right=0;bottom=0;align=left;verticalAlign=top;spacingTop=-2;fillColor=none;spacingLeft=64;spacingRight=4;overflow=hidden;rotatable=0;points=[[0,0.5],[1,0.5]];portConstraint=eastwest;dropTarget=0;" vertex="1" parent="HZIiBSOwdoPRaEt3oadx-533">
          <mxGeometry y="26" width="160" height="26" as="geometry" />
        </mxCell>
        <mxCell id="HZIiBSOwdoPRaEt3oadx-535" value="" style="shape=partialRectangle;top=0;left=0;bottom=0;fillColor=none;align=left;verticalAlign=middle;spacingLeft=4;spacingRight=4;overflow=hidden;rotatable=180;points=[];portConstraint=eastwest;part=1;" vertex="1" connectable="0" parent="HZIiBSOwdoPRaEt3oadx-534">
          <mxGeometry width="54" height="26" as="geometry" />
        </mxCell>
        <mxCell id="HZIiBSOwdoPRaEt3oadx-536" value="constraint" style="shape=partialRectangle;top=0;left=0;right=0;bottom=0;align=left;verticalAlign=top;spacingTop=-2;fillColor=none;spacingLeft=64;spacingRight=4;overflow=hidden;rotatable=0;points=[[0,0.5],[1,0.5]];portConstraint=eastwest;dropTarget=0;" vertex="1" parent="HZIiBSOwdoPRaEt3oadx-533">
          <mxGeometry y="52" width="160" height="26" as="geometry" />
        </mxCell>
        <mxCell id="HZIiBSOwdoPRaEt3oadx-537" value="" style="shape=partialRectangle;top=0;left=0;bottom=0;fillColor=none;align=left;verticalAlign=middle;spacingLeft=4;spacingRight=4;overflow=hidden;rotatable=180;points=[];portConstraint=eastwest;part=1;" vertex="1" connectable="0" parent="HZIiBSOwdoPRaEt3oadx-536">
          <mxGeometry width="54" height="26" as="geometry" />
        </mxCell>
        <mxCell id="HZIiBSOwdoPRaEt3oadx-538" value="Name" style="shape=partialRectangle;top=0;left=0;right=0;bottom=0;align=left;verticalAlign=top;spacingTop=-2;fillColor=none;spacingLeft=64;spacingRight=4;overflow=hidden;rotatable=0;points=[[0,0.5],[1,0.5]];portConstraint=eastwest;dropTarget=0;" vertex="1" parent="HZIiBSOwdoPRaEt3oadx-533">
          <mxGeometry y="78" width="160" height="26" as="geometry" />
        </mxCell>
        <mxCell id="HZIiBSOwdoPRaEt3oadx-539" value="" style="shape=partialRectangle;top=0;left=0;bottom=0;fillColor=none;align=left;verticalAlign=middle;spacingLeft=4;spacingRight=4;overflow=hidden;rotatable=180;points=[];portConstraint=eastwest;part=1;" vertex="1" connectable="0" parent="HZIiBSOwdoPRaEt3oadx-538">
          <mxGeometry width="54" height="26" as="geometry" />
        </mxCell>
        <mxCell id="HZIiBSOwdoPRaEt3oadx-540" value="Description" style="shape=partialRectangle;top=0;left=0;right=0;bottom=0;align=left;verticalAlign=top;spacingTop=-2;fillColor=none;spacingLeft=64;spacingRight=4;overflow=hidden;rotatable=0;points=[[0,0.5],[1,0.5]];portConstraint=eastwest;dropTarget=0;" vertex="1" parent="HZIiBSOwdoPRaEt3oadx-533">
          <mxGeometry y="104" width="160" height="26" as="geometry" />
        </mxCell>
        <mxCell id="HZIiBSOwdoPRaEt3oadx-541" value="" style="shape=partialRectangle;top=0;left=0;bottom=0;fillColor=none;align=left;verticalAlign=middle;spacingLeft=4;spacingRight=4;overflow=hidden;rotatable=180;points=[];portConstraint=eastwest;part=1;" vertex="1" connectable="0" parent="HZIiBSOwdoPRaEt3oadx-540">
          <mxGeometry width="54" height="26" as="geometry" />
        </mxCell>
        <mxCell id="HZIiBSOwdoPRaEt3oadx-542" value="Departments" style="swimlane;fontStyle=0;childLayout=stackLayout;horizontal=1;startSize=26;fillColor=default;horizontalStack=0;resizeParent=1;resizeLast=0;collapsible=1;marginBottom=0;swimlaneFillColor=default;align=center;" vertex="1" parent="1">
          <mxGeometry x="40" y="230" width="261" height="130" as="geometry" />
        </mxCell>
        <mxCell id="HZIiBSOwdoPRaEt3oadx-543" value="DepartmentID" style="shape=partialRectangle;top=0;left=0;right=0;bottom=0;align=left;verticalAlign=top;spacingTop=-2;fillColor=none;spacingLeft=64;spacingRight=4;overflow=hidden;rotatable=0;points=[[0,0.5],[1,0.5]];portConstraint=eastwest;dropTarget=0;" vertex="1" parent="HZIiBSOwdoPRaEt3oadx-542">
          <mxGeometry y="26" width="261" height="26" as="geometry" />
        </mxCell>
        <mxCell id="HZIiBSOwdoPRaEt3oadx-544" value="" style="shape=partialRectangle;top=0;left=0;bottom=0;fillColor=none;align=left;verticalAlign=middle;spacingLeft=4;spacingRight=4;overflow=hidden;rotatable=180;points=[];portConstraint=eastwest;part=1;" vertex="1" connectable="0" parent="HZIiBSOwdoPRaEt3oadx-543">
          <mxGeometry width="54" height="26" as="geometry" />
        </mxCell>
        <mxCell id="HZIiBSOwdoPRaEt3oadx-545" value="constraint" style="shape=partialRectangle;top=0;left=0;right=0;bottom=0;align=left;verticalAlign=top;spacingTop=-2;fillColor=none;spacingLeft=64;spacingRight=4;overflow=hidden;rotatable=0;points=[[0,0.5],[1,0.5]];portConstraint=eastwest;dropTarget=0;" vertex="1" parent="HZIiBSOwdoPRaEt3oadx-542">
          <mxGeometry y="52" width="261" height="26" as="geometry" />
        </mxCell>
        <mxCell id="HZIiBSOwdoPRaEt3oadx-546" value="" style="shape=partialRectangle;top=0;left=0;bottom=0;fillColor=none;align=left;verticalAlign=middle;spacingLeft=4;spacingRight=4;overflow=hidden;rotatable=180;points=[];portConstraint=eastwest;part=1;" vertex="1" connectable="0" parent="HZIiBSOwdoPRaEt3oadx-545">
          <mxGeometry width="54" height="26" as="geometry" />
        </mxCell>
        <mxCell id="HZIiBSOwdoPRaEt3oadx-547" value="Name" style="shape=partialRectangle;top=0;left=0;right=0;bottom=0;align=left;verticalAlign=top;spacingTop=-2;fillColor=none;spacingLeft=64;spacingRight=4;overflow=hidden;rotatable=0;points=[[0,0.5],[1,0.5]];portConstraint=eastwest;dropTarget=0;" vertex="1" parent="HZIiBSOwdoPRaEt3oadx-542">
          <mxGeometry y="78" width="261" height="26" as="geometry" />
        </mxCell>
        <mxCell id="HZIiBSOwdoPRaEt3oadx-548" value="" style="shape=partialRectangle;top=0;left=0;bottom=0;fillColor=none;align=left;verticalAlign=middle;spacingLeft=4;spacingRight=4;overflow=hidden;rotatable=180;points=[];portConstraint=eastwest;part=1;" vertex="1" connectable="0" parent="HZIiBSOwdoPRaEt3oadx-547">
          <mxGeometry width="54" height="26" as="geometry" />
        </mxCell>
        <mxCell id="HZIiBSOwdoPRaEt3oadx-549" value="HeadOfDepartment" style="shape=partialRectangle;top=0;left=0;right=0;bottom=0;align=left;verticalAlign=top;spacingTop=-2;fillColor=none;spacingLeft=64;spacingRight=4;overflow=hidden;rotatable=0;points=[[0,0.5],[1,0.5]];portConstraint=eastwest;dropTarget=0;" vertex="1" parent="HZIiBSOwdoPRaEt3oadx-542">
          <mxGeometry y="104" width="261" height="26" as="geometry" />
        </mxCell>
        <mxCell id="HZIiBSOwdoPRaEt3oadx-550" value="" style="shape=partialRectangle;top=0;left=0;bottom=0;fillColor=none;align=left;verticalAlign=middle;spacingLeft=4;spacingRight=4;overflow=hidden;rotatable=180;points=[];portConstraint=eastwest;part=1;" vertex="1" connectable="0" parent="HZIiBSOwdoPRaEt3oadx-549">
          <mxGeometry width="54" height="26" as="geometry" />
        </mxCell>
        <mxCell id="HZIiBSOwdoPRaEt3oadx-551" value="Roles" style="swimlane;fontStyle=0;childLayout=stackLayout;horizontal=1;startSize=26;fillColor=default;horizontalStack=0;resizeParent=1;resizeLast=0;collapsible=1;marginBottom=0;swimlaneFillColor=default;align=center;" vertex="1" parent="1">
          <mxGeometry x="957" y="507" width="295" height="104" as="geometry" />
        </mxCell>
        <mxCell id="HZIiBSOwdoPRaEt3oadx-552" value="RoleID" style="shape=partialRectangle;top=0;left=0;right=0;bottom=0;align=left;verticalAlign=top;spacingTop=-2;fillColor=none;spacingLeft=64;spacingRight=4;overflow=hidden;rotatable=0;points=[[0,0.5],[1,0.5]];portConstraint=eastwest;dropTarget=0;" vertex="1" parent="HZIiBSOwdoPRaEt3oadx-551">
          <mxGeometry y="26" width="295" height="26" as="geometry" />
        </mxCell>
        <mxCell id="HZIiBSOwdoPRaEt3oadx-553" value="" style="shape=partialRectangle;top=0;left=0;bottom=0;fillColor=none;align=left;verticalAlign=middle;spacingLeft=4;spacingRight=4;overflow=hidden;rotatable=180;points=[];portConstraint=eastwest;part=1;" vertex="1" connectable="0" parent="HZIiBSOwdoPRaEt3oadx-552">
          <mxGeometry width="54" height="26" as="geometry" />
        </mxCell>
        <mxCell id="HZIiBSOwdoPRaEt3oadx-556" value="Name" style="shape=partialRectangle;top=0;left=0;right=0;bottom=0;align=left;verticalAlign=top;spacingTop=-2;fillColor=none;spacingLeft=64;spacingRight=4;overflow=hidden;rotatable=0;points=[[0,0.5],[1,0.5]];portConstraint=eastwest;dropTarget=0;" vertex="1" parent="HZIiBSOwdoPRaEt3oadx-551">
          <mxGeometry y="52" width="295" height="26" as="geometry" />
        </mxCell>
        <mxCell id="HZIiBSOwdoPRaEt3oadx-557" value="" style="shape=partialRectangle;top=0;left=0;bottom=0;fillColor=none;align=left;verticalAlign=middle;spacingLeft=4;spacingRight=4;overflow=hidden;rotatable=180;points=[];portConstraint=eastwest;part=1;" vertex="1" connectable="0" parent="HZIiBSOwdoPRaEt3oadx-556">
          <mxGeometry width="54" height="26" as="geometry" />
        </mxCell>
        <mxCell id="HZIiBSOwdoPRaEt3oadx-558" value="Description" style="shape=partialRectangle;top=0;left=0;right=0;bottom=0;align=left;verticalAlign=top;spacingTop=-2;fillColor=none;spacingLeft=64;spacingRight=4;overflow=hidden;rotatable=0;points=[[0,0.5],[1,0.5]];portConstraint=eastwest;dropTarget=0;" vertex="1" parent="HZIiBSOwdoPRaEt3oadx-551">
          <mxGeometry y="78" width="295" height="26" as="geometry" />
        </mxCell>
        <mxCell id="HZIiBSOwdoPRaEt3oadx-559" value="" style="shape=partialRectangle;top=0;left=0;bottom=0;fillColor=none;align=left;verticalAlign=middle;spacingLeft=4;spacingRight=4;overflow=hidden;rotatable=180;points=[];portConstraint=eastwest;part=1;" vertex="1" connectable="0" parent="HZIiBSOwdoPRaEt3oadx-558">
          <mxGeometry width="54" height="26" as="geometry" />
        </mxCell>
        <mxCell id="HZIiBSOwdoPRaEt3oadx-560" value="Statuses" style="swimlane;fontStyle=0;childLayout=stackLayout;horizontal=1;startSize=26;fillColor=default;horizontalStack=0;resizeParent=1;resizeLast=0;collapsible=1;marginBottom=0;swimlaneFillColor=default;align=center;" vertex="1" parent="1">
          <mxGeometry x="40" y="570" width="258" height="130" as="geometry" />
        </mxCell>
        <mxCell id="HZIiBSOwdoPRaEt3oadx-561" value="StatusID" style="shape=partialRectangle;top=0;left=0;right=0;bottom=0;align=left;verticalAlign=top;spacingTop=-2;fillColor=none;spacingLeft=64;spacingRight=4;overflow=hidden;rotatable=0;points=[[0,0.5],[1,0.5]];portConstraint=eastwest;dropTarget=0;" vertex="1" parent="HZIiBSOwdoPRaEt3oadx-560">
          <mxGeometry y="26" width="258" height="26" as="geometry" />
        </mxCell>
        <mxCell id="HZIiBSOwdoPRaEt3oadx-562" value="" style="shape=partialRectangle;top=0;left=0;bottom=0;fillColor=none;align=left;verticalAlign=middle;spacingLeft=4;spacingRight=4;overflow=hidden;rotatable=180;points=[];portConstraint=eastwest;part=1;" vertex="1" connectable="0" parent="HZIiBSOwdoPRaEt3oadx-561">
          <mxGeometry width="54" height="26" as="geometry" />
        </mxCell>
        <mxCell id="HZIiBSOwdoPRaEt3oadx-563" value="constraint" style="shape=partialRectangle;top=0;left=0;right=0;bottom=0;align=left;verticalAlign=top;spacingTop=-2;fillColor=none;spacingLeft=64;spacingRight=4;overflow=hidden;rotatable=0;points=[[0,0.5],[1,0.5]];portConstraint=eastwest;dropTarget=0;" vertex="1" parent="HZIiBSOwdoPRaEt3oadx-560">
          <mxGeometry y="52" width="258" height="26" as="geometry" />
        </mxCell>
        <mxCell id="HZIiBSOwdoPRaEt3oadx-564" value="" style="shape=partialRectangle;top=0;left=0;bottom=0;fillColor=none;align=left;verticalAlign=middle;spacingLeft=4;spacingRight=4;overflow=hidden;rotatable=180;points=[];portConstraint=eastwest;part=1;" vertex="1" connectable="0" parent="HZIiBSOwdoPRaEt3oadx-563">
          <mxGeometry width="54" height="26" as="geometry" />
        </mxCell>
        <mxCell id="HZIiBSOwdoPRaEt3oadx-565" value="Name" style="shape=partialRectangle;top=0;left=0;right=0;bottom=0;align=left;verticalAlign=top;spacingTop=-2;fillColor=none;spacingLeft=64;spacingRight=4;overflow=hidden;rotatable=0;points=[[0,0.5],[1,0.5]];portConstraint=eastwest;dropTarget=0;" vertex="1" parent="HZIiBSOwdoPRaEt3oadx-560">
          <mxGeometry y="78" width="258" height="26" as="geometry" />
        </mxCell>
        <mxCell id="HZIiBSOwdoPRaEt3oadx-566" value="" style="shape=partialRectangle;top=0;left=0;bottom=0;fillColor=none;align=left;verticalAlign=middle;spacingLeft=4;spacingRight=4;overflow=hidden;rotatable=180;points=[];portConstraint=eastwest;part=1;" vertex="1" connectable="0" parent="HZIiBSOwdoPRaEt3oadx-565">
          <mxGeometry width="54" height="26" as="geometry" />
        </mxCell>
        <mxCell id="HZIiBSOwdoPRaEt3oadx-567" value="Description" style="shape=partialRectangle;top=0;left=0;right=0;bottom=0;align=left;verticalAlign=top;spacingTop=-2;fillColor=none;spacingLeft=64;spacingRight=4;overflow=hidden;rotatable=0;points=[[0,0.5],[1,0.5]];portConstraint=eastwest;dropTarget=0;" vertex="1" parent="HZIiBSOwdoPRaEt3oadx-560">
          <mxGeometry y="104" width="258" height="26" as="geometry" />
        </mxCell>
        <mxCell id="HZIiBSOwdoPRaEt3oadx-568" value="" style="shape=partialRectangle;top=0;left=0;bottom=0;fillColor=none;align=left;verticalAlign=middle;spacingLeft=4;spacingRight=4;overflow=hidden;rotatable=180;points=[];portConstraint=eastwest;part=1;" vertex="1" connectable="0" parent="HZIiBSOwdoPRaEt3oadx-567">
          <mxGeometry width="54" height="26" as="geometry" />
        </mxCell>
        <mxCell id="HZIiBSOwdoPRaEt3oadx-569" value="Suppliers" style="swimlane;fontStyle=0;childLayout=stackLayout;horizontal=1;startSize=26;fillColor=default;horizontalStack=0;resizeParent=1;resizeLast=0;collapsible=1;marginBottom=0;swimlaneFillColor=default;align=center;" vertex="1" parent="1">
          <mxGeometry x="694.5" width="259" height="289" as="geometry" />
        </mxCell>
        <mxCell id="HZIiBSOwdoPRaEt3oadx-570" value="SupplierID" style="shape=partialRectangle;top=0;left=0;right=0;bottom=0;align=left;verticalAlign=top;spacingTop=-2;fillColor=none;spacingLeft=64;spacingRight=4;overflow=hidden;rotatable=0;points=[[0,0.5],[1,0.5]];portConstraint=eastwest;dropTarget=0;" vertex="1" parent="HZIiBSOwdoPRaEt3oadx-569">
          <mxGeometry y="26" width="259" height="26" as="geometry" />
        </mxCell>
        <mxCell id="HZIiBSOwdoPRaEt3oadx-571" value="" style="shape=partialRectangle;top=0;left=0;bottom=0;fillColor=none;align=left;verticalAlign=middle;spacingLeft=4;spacingRight=4;overflow=hidden;rotatable=180;points=[];portConstraint=eastwest;part=1;" vertex="1" connectable="0" parent="HZIiBSOwdoPRaEt3oadx-570">
          <mxGeometry width="54" height="26" as="geometry" />
        </mxCell>
        <mxCell id="HZIiBSOwdoPRaEt3oadx-572" value="constraint" style="shape=partialRectangle;top=0;left=0;right=0;bottom=0;align=left;verticalAlign=top;spacingTop=-2;fillColor=none;spacingLeft=64;spacingRight=4;overflow=hidden;rotatable=0;points=[[0,0.5],[1,0.5]];portConstraint=eastwest;dropTarget=0;" vertex="1" parent="HZIiBSOwdoPRaEt3oadx-569">
          <mxGeometry y="52" width="259" height="26" as="geometry" />
        </mxCell>
        <mxCell id="HZIiBSOwdoPRaEt3oadx-573" value="" style="shape=partialRectangle;top=0;left=0;bottom=0;fillColor=none;align=left;verticalAlign=middle;spacingLeft=4;spacingRight=4;overflow=hidden;rotatable=180;points=[];portConstraint=eastwest;part=1;" vertex="1" connectable="0" parent="HZIiBSOwdoPRaEt3oadx-572">
          <mxGeometry width="54" height="26" as="geometry" />
        </mxCell>
        <mxCell id="HZIiBSOwdoPRaEt3oadx-574" value="CompanyName" style="shape=partialRectangle;top=0;left=0;right=0;bottom=0;align=left;verticalAlign=top;spacingTop=-2;fillColor=none;spacingLeft=64;spacingRight=4;overflow=hidden;rotatable=0;points=[[0,0.5],[1,0.5]];portConstraint=eastwest;dropTarget=0;" vertex="1" parent="HZIiBSOwdoPRaEt3oadx-569">
          <mxGeometry y="78" width="259" height="26" as="geometry" />
        </mxCell>
        <mxCell id="HZIiBSOwdoPRaEt3oadx-575" value="" style="shape=partialRectangle;top=0;left=0;bottom=0;fillColor=none;align=left;verticalAlign=middle;spacingLeft=4;spacingRight=4;overflow=hidden;rotatable=180;points=[];portConstraint=eastwest;part=1;" vertex="1" connectable="0" parent="HZIiBSOwdoPRaEt3oadx-574">
          <mxGeometry width="54" height="26" as="geometry" />
        </mxCell>
        <mxCell id="HZIiBSOwdoPRaEt3oadx-576" value="ContactInfo" style="shape=partialRectangle;top=0;left=0;right=0;bottom=0;align=left;verticalAlign=top;spacingTop=-2;fillColor=none;spacingLeft=64;spacingRight=4;overflow=hidden;rotatable=0;points=[[0,0.5],[1,0.5]];portConstraint=eastwest;dropTarget=0;" vertex="1" parent="HZIiBSOwdoPRaEt3oadx-569">
          <mxGeometry y="104" width="259" height="26" as="geometry" />
        </mxCell>
        <mxCell id="HZIiBSOwdoPRaEt3oadx-577" value="" style="shape=partialRectangle;top=0;left=0;bottom=0;fillColor=none;align=left;verticalAlign=middle;spacingLeft=4;spacingRight=4;overflow=hidden;rotatable=180;points=[];portConstraint=eastwest;part=1;" vertex="1" connectable="0" parent="HZIiBSOwdoPRaEt3oadx-576">
          <mxGeometry width="54" height="26" as="geometry" />
        </mxCell>
        <mxCell id="HZIiBSOwdoPRaEt3oadx-578" value="ContactPerson" style="shape=partialRectangle;top=0;left=0;right=0;bottom=0;align=left;verticalAlign=top;spacingTop=-2;fillColor=none;spacingLeft=64;spacingRight=4;overflow=hidden;rotatable=0;points=[[0,0.5],[1,0.5]];portConstraint=eastwest;dropTarget=0;" vertex="1" parent="HZIiBSOwdoPRaEt3oadx-569">
          <mxGeometry y="130" width="259" height="26" as="geometry" />
        </mxCell>
        <mxCell id="HZIiBSOwdoPRaEt3oadx-579" value="" style="shape=partialRectangle;top=0;left=0;bottom=0;fillColor=none;align=left;verticalAlign=middle;spacingLeft=4;spacingRight=4;overflow=hidden;rotatable=180;points=[];portConstraint=eastwest;part=1;" vertex="1" connectable="0" parent="HZIiBSOwdoPRaEt3oadx-578">
          <mxGeometry width="54" height="26" as="geometry" />
        </mxCell>
        <mxCell id="HZIiBSOwdoPRaEt3oadx-580" value="Email" style="shape=partialRectangle;top=0;left=0;right=0;bottom=0;align=left;verticalAlign=top;spacingTop=-2;fillColor=none;spacingLeft=64;spacingRight=4;overflow=hidden;rotatable=0;points=[[0,0.5],[1,0.5]];portConstraint=eastwest;dropTarget=0;" vertex="1" parent="HZIiBSOwdoPRaEt3oadx-569">
          <mxGeometry y="156" width="259" height="26" as="geometry" />
        </mxCell>
        <mxCell id="HZIiBSOwdoPRaEt3oadx-581" value="" style="shape=partialRectangle;top=0;left=0;bottom=0;fillColor=none;align=left;verticalAlign=middle;spacingLeft=4;spacingRight=4;overflow=hidden;rotatable=180;points=[];portConstraint=eastwest;part=1;" vertex="1" connectable="0" parent="HZIiBSOwdoPRaEt3oadx-580">
          <mxGeometry width="54" height="26" as="geometry" />
        </mxCell>
        <mxCell id="HZIiBSOwdoPRaEt3oadx-582" value="Phone" style="shape=partialRectangle;top=0;left=0;right=0;bottom=0;align=left;verticalAlign=top;spacingTop=-2;fillColor=none;spacingLeft=64;spacingRight=4;overflow=hidden;rotatable=0;points=[[0,0.5],[1,0.5]];portConstraint=eastwest;dropTarget=0;" vertex="1" parent="HZIiBSOwdoPRaEt3oadx-569">
          <mxGeometry y="182" width="259" height="26" as="geometry" />
        </mxCell>
        <mxCell id="HZIiBSOwdoPRaEt3oadx-583" value="" style="shape=partialRectangle;top=0;left=0;bottom=0;fillColor=none;align=left;verticalAlign=middle;spacingLeft=4;spacingRight=4;overflow=hidden;rotatable=180;points=[];portConstraint=eastwest;part=1;" vertex="1" connectable="0" parent="HZIiBSOwdoPRaEt3oadx-582">
          <mxGeometry width="54" height="26" as="geometry" />
        </mxCell>
        <mxCell id="HZIiBSOwdoPRaEt3oadx-584" value="Website" style="shape=partialRectangle;top=0;left=0;right=0;bottom=0;align=left;verticalAlign=top;spacingTop=-2;fillColor=none;spacingLeft=64;spacingRight=4;overflow=hidden;rotatable=0;points=[[0,0.5],[1,0.5]];portConstraint=eastwest;dropTarget=0;" vertex="1" parent="HZIiBSOwdoPRaEt3oadx-569">
          <mxGeometry y="208" width="259" height="26" as="geometry" />
        </mxCell>
        <mxCell id="HZIiBSOwdoPRaEt3oadx-585" value="" style="shape=partialRectangle;top=0;left=0;bottom=0;fillColor=none;align=left;verticalAlign=middle;spacingLeft=4;spacingRight=4;overflow=hidden;rotatable=180;points=[];portConstraint=eastwest;part=1;" vertex="1" connectable="0" parent="HZIiBSOwdoPRaEt3oadx-584">
          <mxGeometry width="54" height="26" as="geometry" />
        </mxCell>
        <mxCell id="HZIiBSOwdoPRaEt3oadx-586" value="Address" style="shape=partialRectangle;top=0;left=0;right=0;bottom=0;align=left;verticalAlign=top;spacingTop=-2;fillColor=none;spacingLeft=64;spacingRight=4;overflow=hidden;rotatable=0;points=[[0,0.5],[1,0.5]];portConstraint=eastwest;dropTarget=0;" vertex="1" parent="HZIiBSOwdoPRaEt3oadx-569">
          <mxGeometry y="234" width="259" height="26" as="geometry" />
        </mxCell>
        <mxCell id="HZIiBSOwdoPRaEt3oadx-587" value="" style="shape=partialRectangle;top=0;left=0;bottom=0;fillColor=none;align=left;verticalAlign=middle;spacingLeft=4;spacingRight=4;overflow=hidden;rotatable=180;points=[];portConstraint=eastwest;part=1;" vertex="1" connectable="0" parent="HZIiBSOwdoPRaEt3oadx-586">
          <mxGeometry width="54" height="26" as="geometry" />
        </mxCell>
        <mxCell id="HZIiBSOwdoPRaEt3oadx-588" value="CategoryID" style="shape=partialRectangle;top=0;left=0;right=0;bottom=0;align=left;verticalAlign=top;spacingTop=-2;fillColor=none;spacingLeft=64;spacingRight=4;overflow=hidden;rotatable=0;points=[[0,0.5],[1,0.5]];portConstraint=eastwest;dropTarget=0;" vertex="1" parent="HZIiBSOwdoPRaEt3oadx-569">
          <mxGeometry y="260" width="259" height="26" as="geometry" />
        </mxCell>
        <mxCell id="HZIiBSOwdoPRaEt3oadx-589" value="" style="shape=partialRectangle;top=0;left=0;bottom=0;fillColor=none;align=left;verticalAlign=middle;spacingLeft=4;spacingRight=4;overflow=hidden;rotatable=180;points=[];portConstraint=eastwest;part=1;" vertex="1" connectable="0" parent="HZIiBSOwdoPRaEt3oadx-588">
          <mxGeometry width="54" height="26" as="geometry" />
        </mxCell>
        <mxCell id="HZIiBSOwdoPRaEt3oadx-596" value="Equipments" style="swimlane;fontStyle=0;childLayout=stackLayout;horizontal=1;startSize=26;fillColor=default;horizontalStack=0;resizeParent=1;resizeLast=0;collapsible=1;marginBottom=0;swimlaneFillColor=default;align=center;" vertex="1" parent="1">
          <mxGeometry x="694.5" y="404" width="210" height="316" as="geometry" />
        </mxCell>
        <mxCell id="HZIiBSOwdoPRaEt3oadx-597" value="EquipmentID" style="shape=partialRectangle;top=0;left=0;right=0;bottom=0;align=left;verticalAlign=top;spacingTop=-2;fillColor=none;spacingLeft=64;spacingRight=4;overflow=hidden;rotatable=0;points=[[0,0.5],[1,0.5]];portConstraint=eastwest;dropTarget=0;" vertex="1" parent="HZIiBSOwdoPRaEt3oadx-596">
          <mxGeometry y="26" width="210" height="26" as="geometry" />
        </mxCell>
        <mxCell id="HZIiBSOwdoPRaEt3oadx-598" value="" style="shape=partialRectangle;top=0;left=0;bottom=0;fillColor=none;align=left;verticalAlign=middle;spacingLeft=4;spacingRight=4;overflow=hidden;rotatable=180;points=[];portConstraint=eastwest;part=1;" vertex="1" connectable="0" parent="HZIiBSOwdoPRaEt3oadx-597">
          <mxGeometry width="54" height="26" as="geometry" />
        </mxCell>
        <mxCell id="HZIiBSOwdoPRaEt3oadx-599" value="constraint" style="shape=partialRectangle;top=0;left=0;right=0;bottom=0;align=left;verticalAlign=top;spacingTop=-2;fillColor=none;spacingLeft=64;spacingRight=4;overflow=hidden;rotatable=0;points=[[0,0.5],[1,0.5]];portConstraint=eastwest;dropTarget=0;" vertex="1" parent="HZIiBSOwdoPRaEt3oadx-596">
          <mxGeometry y="52" width="210" height="26" as="geometry" />
        </mxCell>
        <mxCell id="HZIiBSOwdoPRaEt3oadx-600" value="" style="shape=partialRectangle;top=0;left=0;bottom=0;fillColor=none;align=left;verticalAlign=middle;spacingLeft=4;spacingRight=4;overflow=hidden;rotatable=180;points=[];portConstraint=eastwest;part=1;" vertex="1" connectable="0" parent="HZIiBSOwdoPRaEt3oadx-599">
          <mxGeometry width="54" height="26" as="geometry" />
        </mxCell>
        <mxCell id="HZIiBSOwdoPRaEt3oadx-601" value="Name" style="shape=partialRectangle;top=0;left=0;right=0;bottom=0;align=left;verticalAlign=top;spacingTop=-2;fillColor=none;spacingLeft=64;spacingRight=4;overflow=hidden;rotatable=0;points=[[0,0.5],[1,0.5]];portConstraint=eastwest;dropTarget=0;" vertex="1" parent="HZIiBSOwdoPRaEt3oadx-596">
          <mxGeometry y="78" width="210" height="26" as="geometry" />
        </mxCell>
        <mxCell id="HZIiBSOwdoPRaEt3oadx-602" value="" style="shape=partialRectangle;top=0;left=0;bottom=0;fillColor=none;align=left;verticalAlign=middle;spacingLeft=4;spacingRight=4;overflow=hidden;rotatable=180;points=[];portConstraint=eastwest;part=1;" vertex="1" connectable="0" parent="HZIiBSOwdoPRaEt3oadx-601">
          <mxGeometry width="54" height="26" as="geometry" />
        </mxCell>
        <mxCell id="HZIiBSOwdoPRaEt3oadx-603" value="Photo" style="shape=partialRectangle;top=0;left=0;right=0;bottom=0;align=left;verticalAlign=top;spacingTop=-2;fillColor=none;spacingLeft=64;spacingRight=4;overflow=hidden;rotatable=0;points=[[0,0.5],[1,0.5]];portConstraint=eastwest;dropTarget=0;" vertex="1" parent="HZIiBSOwdoPRaEt3oadx-596">
          <mxGeometry y="104" width="210" height="26" as="geometry" />
        </mxCell>
        <mxCell id="HZIiBSOwdoPRaEt3oadx-604" value="" style="shape=partialRectangle;top=0;left=0;bottom=0;fillColor=none;align=left;verticalAlign=middle;spacingLeft=4;spacingRight=4;overflow=hidden;rotatable=180;points=[];portConstraint=eastwest;part=1;" vertex="1" connectable="0" parent="HZIiBSOwdoPRaEt3oadx-603">
          <mxGeometry width="54" height="26" as="geometry" />
        </mxCell>
        <mxCell id="HZIiBSOwdoPRaEt3oadx-605" value="CategoryID" style="shape=partialRectangle;top=0;left=0;right=0;bottom=0;align=left;verticalAlign=top;spacingTop=-2;fillColor=none;spacingLeft=64;spacingRight=4;overflow=hidden;rotatable=0;points=[[0,0.5],[1,0.5]];portConstraint=eastwest;dropTarget=0;" vertex="1" parent="HZIiBSOwdoPRaEt3oadx-596">
          <mxGeometry y="130" width="210" height="26" as="geometry" />
        </mxCell>
        <mxCell id="HZIiBSOwdoPRaEt3oadx-606" value="" style="shape=partialRectangle;top=0;left=0;bottom=0;fillColor=none;align=left;verticalAlign=middle;spacingLeft=4;spacingRight=4;overflow=hidden;rotatable=180;points=[];portConstraint=eastwest;part=1;" vertex="1" connectable="0" parent="HZIiBSOwdoPRaEt3oadx-605">
          <mxGeometry width="54" height="26" as="geometry" />
        </mxCell>
        <mxCell id="HZIiBSOwdoPRaEt3oadx-613" value="Cost" style="shape=partialRectangle;top=0;left=0;right=0;bottom=0;align=left;verticalAlign=top;spacingTop=-2;fillColor=none;spacingLeft=64;spacingRight=4;overflow=hidden;rotatable=0;points=[[0,0.5],[1,0.5]];portConstraint=eastwest;dropTarget=0;" vertex="1" parent="HZIiBSOwdoPRaEt3oadx-596">
          <mxGeometry y="156" width="210" height="26" as="geometry" />
        </mxCell>
        <mxCell id="HZIiBSOwdoPRaEt3oadx-614" value="" style="shape=partialRectangle;top=0;left=0;bottom=0;fillColor=none;align=left;verticalAlign=middle;spacingLeft=4;spacingRight=4;overflow=hidden;rotatable=180;points=[];portConstraint=eastwest;part=1;" vertex="1" connectable="0" parent="HZIiBSOwdoPRaEt3oadx-613">
          <mxGeometry width="54" height="26" as="geometry" />
        </mxCell>
        <mxCell id="HZIiBSOwdoPRaEt3oadx-615" value="SerialNumber" style="shape=partialRectangle;top=0;left=0;right=0;bottom=0;align=left;verticalAlign=top;spacingTop=-2;fillColor=none;spacingLeft=64;spacingRight=4;overflow=hidden;rotatable=0;points=[[0,0.5],[1,0.5]];portConstraint=eastwest;dropTarget=0;" vertex="1" parent="HZIiBSOwdoPRaEt3oadx-596">
          <mxGeometry y="182" width="210" height="26" as="geometry" />
        </mxCell>
        <mxCell id="HZIiBSOwdoPRaEt3oadx-616" value="" style="shape=partialRectangle;top=0;left=0;bottom=0;fillColor=none;align=left;verticalAlign=middle;spacingLeft=4;spacingRight=4;overflow=hidden;rotatable=180;points=[];portConstraint=eastwest;part=1;" vertex="1" connectable="0" parent="HZIiBSOwdoPRaEt3oadx-615">
          <mxGeometry width="54" height="26" as="geometry" />
        </mxCell>
        <mxCell id="HZIiBSOwdoPRaEt3oadx-617" value="PurchaseDate" style="shape=partialRectangle;top=0;left=0;right=0;bottom=0;align=left;verticalAlign=top;spacingTop=-2;fillColor=none;spacingLeft=64;spacingRight=4;overflow=hidden;rotatable=0;points=[[0,0.5],[1,0.5]];portConstraint=eastwest;dropTarget=0;" vertex="1" parent="HZIiBSOwdoPRaEt3oadx-596">
          <mxGeometry y="208" width="210" height="26" as="geometry" />
        </mxCell>
        <mxCell id="HZIiBSOwdoPRaEt3oadx-618" value="" style="shape=partialRectangle;top=0;left=0;bottom=0;fillColor=none;align=left;verticalAlign=middle;spacingLeft=4;spacingRight=4;overflow=hidden;rotatable=180;points=[];portConstraint=eastwest;part=1;" vertex="1" connectable="0" parent="HZIiBSOwdoPRaEt3oadx-617">
          <mxGeometry width="54" height="26" as="geometry" />
        </mxCell>
        <mxCell id="HZIiBSOwdoPRaEt3oadx-619" value="WarrantyExpiration" style="shape=partialRectangle;top=0;left=0;right=0;bottom=0;align=left;verticalAlign=top;spacingTop=-2;fillColor=none;spacingLeft=64;spacingRight=4;overflow=hidden;rotatable=0;points=[[0,0.5],[1,0.5]];portConstraint=eastwest;dropTarget=0;" vertex="1" parent="HZIiBSOwdoPRaEt3oadx-596">
          <mxGeometry y="234" width="210" height="26" as="geometry" />
        </mxCell>
        <mxCell id="HZIiBSOwdoPRaEt3oadx-620" value="" style="shape=partialRectangle;top=0;left=0;bottom=0;fillColor=none;align=left;verticalAlign=middle;spacingLeft=4;spacingRight=4;overflow=hidden;rotatable=180;points=[];portConstraint=eastwest;part=1;" vertex="1" connectable="0" parent="HZIiBSOwdoPRaEt3oadx-619">
          <mxGeometry width="54" height="26" as="geometry" />
        </mxCell>
        <mxCell id="HZIiBSOwdoPRaEt3oadx-621" value="StatusID" style="shape=partialRectangle;top=0;left=0;right=0;bottom=0;align=left;verticalAlign=top;spacingTop=-2;fillColor=none;spacingLeft=64;spacingRight=4;overflow=hidden;rotatable=0;points=[[0,0.5],[1,0.5]];portConstraint=eastwest;dropTarget=0;" vertex="1" parent="HZIiBSOwdoPRaEt3oadx-596">
          <mxGeometry y="260" width="210" height="26" as="geometry" />
        </mxCell>
        <mxCell id="HZIiBSOwdoPRaEt3oadx-622" value="" style="shape=partialRectangle;top=0;left=0;bottom=0;fillColor=none;align=left;verticalAlign=middle;spacingLeft=4;spacingRight=4;overflow=hidden;rotatable=180;points=[];portConstraint=eastwest;part=1;" vertex="1" connectable="0" parent="HZIiBSOwdoPRaEt3oadx-621">
          <mxGeometry width="54" height="26" as="geometry" />
        </mxCell>
        <mxCell id="HZIiBSOwdoPRaEt3oadx-629" value="SupplierID" style="shape=partialRectangle;top=0;left=0;right=0;bottom=0;align=left;verticalAlign=top;spacingTop=-2;fillColor=none;spacingLeft=64;spacingRight=4;overflow=hidden;rotatable=0;points=[[0,0.5],[1,0.5]];portConstraint=eastwest;dropTarget=0;" vertex="1" parent="HZIiBSOwdoPRaEt3oadx-596">
          <mxGeometry y="286" width="210" height="26" as="geometry" />
        </mxCell>
        <mxCell id="HZIiBSOwdoPRaEt3oadx-630" value="" style="shape=partialRectangle;top=0;left=0;bottom=0;fillColor=none;align=left;verticalAlign=middle;spacingLeft=4;spacingRight=4;overflow=hidden;rotatable=180;points=[];portConstraint=eastwest;part=1;" vertex="1" connectable="0" parent="HZIiBSOwdoPRaEt3oadx-629">
          <mxGeometry width="54" height="26" as="geometry" />
        </mxCell>
        <mxCell id="HZIiBSOwdoPRaEt3oadx-637" value="Maintenances" style="swimlane;fontStyle=0;childLayout=stackLayout;horizontal=1;startSize=26;fillColor=default;horizontalStack=0;resizeParent=1;resizeLast=0;collapsible=1;marginBottom=0;swimlaneFillColor=default;align=center;" vertex="1" parent="1">
          <mxGeometry x="1040" width="212" height="130" as="geometry" />
        </mxCell>
        <mxCell id="HZIiBSOwdoPRaEt3oadx-638" value="MaintenanceID" style="shape=partialRectangle;top=0;left=0;right=0;bottom=0;align=left;verticalAlign=top;spacingTop=-2;fillColor=none;spacingLeft=64;spacingRight=4;overflow=hidden;rotatable=0;points=[[0,0.5],[1,0.5]];portConstraint=eastwest;dropTarget=0;" vertex="1" parent="HZIiBSOwdoPRaEt3oadx-637">
          <mxGeometry y="26" width="212" height="26" as="geometry" />
        </mxCell>
        <mxCell id="HZIiBSOwdoPRaEt3oadx-639" value="" style="shape=partialRectangle;top=0;left=0;bottom=0;fillColor=none;align=left;verticalAlign=middle;spacingLeft=4;spacingRight=4;overflow=hidden;rotatable=180;points=[];portConstraint=eastwest;part=1;" vertex="1" connectable="0" parent="HZIiBSOwdoPRaEt3oadx-638">
          <mxGeometry width="54" height="26" as="geometry" />
        </mxCell>
        <mxCell id="HZIiBSOwdoPRaEt3oadx-642" value="EquipmentID" style="shape=partialRectangle;top=0;left=0;right=0;bottom=0;align=left;verticalAlign=top;spacingTop=-2;fillColor=none;spacingLeft=64;spacingRight=4;overflow=hidden;rotatable=0;points=[[0,0.5],[1,0.5]];portConstraint=eastwest;dropTarget=0;" vertex="1" parent="HZIiBSOwdoPRaEt3oadx-637">
          <mxGeometry y="52" width="212" height="26" as="geometry" />
        </mxCell>
        <mxCell id="HZIiBSOwdoPRaEt3oadx-643" value="" style="shape=partialRectangle;top=0;left=0;bottom=0;fillColor=none;align=left;verticalAlign=middle;spacingLeft=4;spacingRight=4;overflow=hidden;rotatable=180;points=[];portConstraint=eastwest;part=1;" vertex="1" connectable="0" parent="HZIiBSOwdoPRaEt3oadx-642">
          <mxGeometry width="54" height="26" as="geometry" />
        </mxCell>
        <mxCell id="HZIiBSOwdoPRaEt3oadx-650" value="MaintenanceDate" style="shape=partialRectangle;top=0;left=0;right=0;bottom=0;align=left;verticalAlign=top;spacingTop=-2;fillColor=none;spacingLeft=64;spacingRight=4;overflow=hidden;rotatable=0;points=[[0,0.5],[1,0.5]];portConstraint=eastwest;dropTarget=0;" vertex="1" parent="HZIiBSOwdoPRaEt3oadx-637">
          <mxGeometry y="78" width="212" height="26" as="geometry" />
        </mxCell>
        <mxCell id="HZIiBSOwdoPRaEt3oadx-651" value="" style="shape=partialRectangle;top=0;left=0;bottom=0;fillColor=none;align=left;verticalAlign=middle;spacingLeft=4;spacingRight=4;overflow=hidden;rotatable=180;points=[];portConstraint=eastwest;part=1;" vertex="1" connectable="0" parent="HZIiBSOwdoPRaEt3oadx-650">
          <mxGeometry width="54" height="26" as="geometry" />
        </mxCell>
        <mxCell id="HZIiBSOwdoPRaEt3oadx-652" value="Notes" style="shape=partialRectangle;top=0;left=0;right=0;bottom=0;align=left;verticalAlign=top;spacingTop=-2;fillColor=none;spacingLeft=64;spacingRight=4;overflow=hidden;rotatable=0;points=[[0,0.5],[1,0.5]];portConstraint=eastwest;dropTarget=0;" vertex="1" parent="HZIiBSOwdoPRaEt3oadx-637">
          <mxGeometry y="104" width="212" height="26" as="geometry" />
        </mxCell>
        <mxCell id="HZIiBSOwdoPRaEt3oadx-653" value="" style="shape=partialRectangle;top=0;left=0;bottom=0;fillColor=none;align=left;verticalAlign=middle;spacingLeft=4;spacingRight=4;overflow=hidden;rotatable=180;points=[];portConstraint=eastwest;part=1;" vertex="1" connectable="0" parent="HZIiBSOwdoPRaEt3oadx-652">
          <mxGeometry width="54" height="26" as="geometry" />
        </mxCell>
        <mxCell id="HZIiBSOwdoPRaEt3oadx-654" value="Users" style="swimlane;fontStyle=0;childLayout=stackLayout;horizontal=1;startSize=26;fillColor=default;horizontalStack=0;resizeParent=1;resizeLast=0;collapsible=1;marginBottom=0;swimlaneFillColor=default;align=center;" vertex="1" parent="1">
          <mxGeometry x="1040" y="160" width="225" height="210" as="geometry" />
        </mxCell>
        <mxCell id="HZIiBSOwdoPRaEt3oadx-655" value="UserID" style="shape=partialRectangle;top=0;left=0;right=0;bottom=0;align=left;verticalAlign=top;spacingTop=-2;fillColor=none;spacingLeft=64;spacingRight=4;overflow=hidden;rotatable=0;points=[[0,0.5],[1,0.5]];portConstraint=eastwest;dropTarget=0;" vertex="1" parent="HZIiBSOwdoPRaEt3oadx-654">
          <mxGeometry y="26" width="225" height="26" as="geometry" />
        </mxCell>
        <mxCell id="HZIiBSOwdoPRaEt3oadx-656" value="" style="shape=partialRectangle;top=0;left=0;bottom=0;fillColor=none;align=left;verticalAlign=middle;spacingLeft=4;spacingRight=4;overflow=hidden;rotatable=180;points=[];portConstraint=eastwest;part=1;" vertex="1" connectable="0" parent="HZIiBSOwdoPRaEt3oadx-655">
          <mxGeometry width="54" height="26" as="geometry" />
        </mxCell>
        <mxCell id="HZIiBSOwdoPRaEt3oadx-659" value="Username" style="shape=partialRectangle;top=0;left=0;right=0;bottom=0;align=left;verticalAlign=top;spacingTop=-2;fillColor=none;spacingLeft=64;spacingRight=4;overflow=hidden;rotatable=0;points=[[0,0.5],[1,0.5]];portConstraint=eastwest;dropTarget=0;" vertex="1" parent="HZIiBSOwdoPRaEt3oadx-654">
          <mxGeometry y="52" width="225" height="26" as="geometry" />
        </mxCell>
        <mxCell id="HZIiBSOwdoPRaEt3oadx-660" value="" style="shape=partialRectangle;top=0;left=0;bottom=0;fillColor=none;align=left;verticalAlign=middle;spacingLeft=4;spacingRight=4;overflow=hidden;rotatable=180;points=[];portConstraint=eastwest;part=1;" vertex="1" connectable="0" parent="HZIiBSOwdoPRaEt3oadx-659">
          <mxGeometry width="54" height="26" as="geometry" />
        </mxCell>
        <mxCell id="HZIiBSOwdoPRaEt3oadx-661" value="Password" style="shape=partialRectangle;top=0;left=0;right=0;bottom=0;align=left;verticalAlign=top;spacingTop=-2;fillColor=none;spacingLeft=64;spacingRight=4;overflow=hidden;rotatable=0;points=[[0,0.5],[1,0.5]];portConstraint=eastwest;dropTarget=0;" vertex="1" parent="HZIiBSOwdoPRaEt3oadx-654">
          <mxGeometry y="78" width="225" height="26" as="geometry" />
        </mxCell>
        <mxCell id="HZIiBSOwdoPRaEt3oadx-662" value="" style="shape=partialRectangle;top=0;left=0;bottom=0;fillColor=none;align=left;verticalAlign=middle;spacingLeft=4;spacingRight=4;overflow=hidden;rotatable=180;points=[];portConstraint=eastwest;part=1;" vertex="1" connectable="0" parent="HZIiBSOwdoPRaEt3oadx-661">
          <mxGeometry width="54" height="26" as="geometry" />
        </mxCell>
        <mxCell id="HZIiBSOwdoPRaEt3oadx-663" value="Email" style="shape=partialRectangle;top=0;left=0;right=0;bottom=0;align=left;verticalAlign=top;spacingTop=-2;fillColor=none;spacingLeft=64;spacingRight=4;overflow=hidden;rotatable=0;points=[[0,0.5],[1,0.5]];portConstraint=eastwest;dropTarget=0;" vertex="1" parent="HZIiBSOwdoPRaEt3oadx-654">
          <mxGeometry y="104" width="225" height="26" as="geometry" />
        </mxCell>
        <mxCell id="HZIiBSOwdoPRaEt3oadx-664" value="" style="shape=partialRectangle;top=0;left=0;bottom=0;fillColor=none;align=left;verticalAlign=middle;spacingLeft=4;spacingRight=4;overflow=hidden;rotatable=180;points=[];portConstraint=eastwest;part=1;" vertex="1" connectable="0" parent="HZIiBSOwdoPRaEt3oadx-663">
          <mxGeometry width="54" height="26" as="geometry" />
        </mxCell>
        <mxCell id="HZIiBSOwdoPRaEt3oadx-665" value="CreatedAt" style="shape=partialRectangle;top=0;left=0;right=0;bottom=0;align=left;verticalAlign=top;spacingTop=-2;fillColor=none;spacingLeft=64;spacingRight=4;overflow=hidden;rotatable=0;points=[[0,0.5],[1,0.5]];portConstraint=eastwest;dropTarget=0;" vertex="1" parent="HZIiBSOwdoPRaEt3oadx-654">
          <mxGeometry y="130" width="225" height="26" as="geometry" />
        </mxCell>
        <mxCell id="HZIiBSOwdoPRaEt3oadx-666" value="" style="shape=partialRectangle;top=0;left=0;bottom=0;fillColor=none;align=left;verticalAlign=middle;spacingLeft=4;spacingRight=4;overflow=hidden;rotatable=180;points=[];portConstraint=eastwest;part=1;" vertex="1" connectable="0" parent="HZIiBSOwdoPRaEt3oadx-665">
          <mxGeometry width="54" height="26" as="geometry" />
        </mxCell>
        <mxCell id="HZIiBSOwdoPRaEt3oadx-667" value="DepartmentID" style="shape=partialRectangle;top=0;left=0;right=0;bottom=0;align=left;verticalAlign=top;spacingTop=-2;fillColor=none;spacingLeft=64;spacingRight=4;overflow=hidden;rotatable=0;points=[[0,0.5],[1,0.5]];portConstraint=eastwest;dropTarget=0;" vertex="1" parent="HZIiBSOwdoPRaEt3oadx-654">
          <mxGeometry y="156" width="225" height="26" as="geometry" />
        </mxCell>
        <mxCell id="HZIiBSOwdoPRaEt3oadx-668" value="" style="shape=partialRectangle;top=0;left=0;bottom=0;fillColor=none;align=left;verticalAlign=middle;spacingLeft=4;spacingRight=4;overflow=hidden;rotatable=180;points=[];portConstraint=eastwest;part=1;" vertex="1" connectable="0" parent="HZIiBSOwdoPRaEt3oadx-667">
          <mxGeometry width="54" height="26" as="geometry" />
        </mxCell>
        <mxCell id="HZIiBSOwdoPRaEt3oadx-673" value="FullName" style="shape=partialRectangle;top=0;left=0;right=0;bottom=0;align=left;verticalAlign=top;spacingTop=-2;fillColor=none;spacingLeft=64;spacingRight=4;overflow=hidden;rotatable=0;points=[[0,0.5],[1,0.5]];portConstraint=eastwest;dropTarget=0;" vertex="1" parent="HZIiBSOwdoPRaEt3oadx-654">
          <mxGeometry y="182" width="225" height="26" as="geometry" />
        </mxCell>
        <mxCell id="HZIiBSOwdoPRaEt3oadx-674" value="" style="shape=partialRectangle;top=0;left=0;bottom=0;fillColor=none;align=left;verticalAlign=middle;spacingLeft=4;spacingRight=4;overflow=hidden;rotatable=180;points=[];portConstraint=eastwest;part=1;" vertex="1" connectable="0" parent="HZIiBSOwdoPRaEt3oadx-673">
          <mxGeometry width="54" height="26" as="geometry" />
        </mxCell>
        <mxCell id="HZIiBSOwdoPRaEt3oadx-675" value="Orders" style="swimlane;fontStyle=0;childLayout=stackLayout;horizontal=1;startSize=26;fillColor=default;horizontalStack=0;resizeParent=1;resizeLast=0;collapsible=1;marginBottom=0;swimlaneFillColor=default;align=center;" vertex="1" parent="1">
          <mxGeometry x="1350" width="246" height="234" as="geometry" />
        </mxCell>
        <mxCell id="HZIiBSOwdoPRaEt3oadx-676" value="OrderID" style="shape=partialRectangle;top=0;left=0;right=0;bottom=0;align=left;verticalAlign=top;spacingTop=-2;fillColor=none;spacingLeft=64;spacingRight=4;overflow=hidden;rotatable=0;points=[[0,0.5],[1,0.5]];portConstraint=eastwest;dropTarget=0;" vertex="1" parent="HZIiBSOwdoPRaEt3oadx-675">
          <mxGeometry y="26" width="246" height="26" as="geometry" />
        </mxCell>
        <mxCell id="HZIiBSOwdoPRaEt3oadx-677" value="" style="shape=partialRectangle;top=0;left=0;bottom=0;fillColor=none;align=left;verticalAlign=middle;spacingLeft=4;spacingRight=4;overflow=hidden;rotatable=180;points=[];portConstraint=eastwest;part=1;" vertex="1" connectable="0" parent="HZIiBSOwdoPRaEt3oadx-676">
          <mxGeometry width="54" height="26" as="geometry" />
        </mxCell>
        <mxCell id="HZIiBSOwdoPRaEt3oadx-680" value="UserID" style="shape=partialRectangle;top=0;left=0;right=0;bottom=0;align=left;verticalAlign=top;spacingTop=-2;fillColor=none;spacingLeft=64;spacingRight=4;overflow=hidden;rotatable=0;points=[[0,0.5],[1,0.5]];portConstraint=eastwest;dropTarget=0;" vertex="1" parent="HZIiBSOwdoPRaEt3oadx-675">
          <mxGeometry y="52" width="246" height="26" as="geometry" />
        </mxCell>
        <mxCell id="HZIiBSOwdoPRaEt3oadx-681" value="" style="shape=partialRectangle;top=0;left=0;bottom=0;fillColor=none;align=left;verticalAlign=middle;spacingLeft=4;spacingRight=4;overflow=hidden;rotatable=180;points=[];portConstraint=eastwest;part=1;" vertex="1" connectable="0" parent="HZIiBSOwdoPRaEt3oadx-680">
          <mxGeometry width="54" height="26" as="geometry" />
        </mxCell>
        <mxCell id="HZIiBSOwdoPRaEt3oadx-688" value="OrderDate" style="shape=partialRectangle;top=0;left=0;right=0;bottom=0;align=left;verticalAlign=top;spacingTop=-2;fillColor=none;spacingLeft=64;spacingRight=4;overflow=hidden;rotatable=0;points=[[0,0.5],[1,0.5]];portConstraint=eastwest;dropTarget=0;" vertex="1" parent="HZIiBSOwdoPRaEt3oadx-675">
          <mxGeometry y="78" width="246" height="26" as="geometry" />
        </mxCell>
        <mxCell id="HZIiBSOwdoPRaEt3oadx-689" value="" style="shape=partialRectangle;top=0;left=0;bottom=0;fillColor=none;align=left;verticalAlign=middle;spacingLeft=4;spacingRight=4;overflow=hidden;rotatable=180;points=[];portConstraint=eastwest;part=1;" vertex="1" connectable="0" parent="HZIiBSOwdoPRaEt3oadx-688">
          <mxGeometry width="54" height="26" as="geometry" />
        </mxCell>
        <mxCell id="HZIiBSOwdoPRaEt3oadx-690" value="Notes" style="shape=partialRectangle;top=0;left=0;right=0;bottom=0;align=left;verticalAlign=top;spacingTop=-2;fillColor=none;spacingLeft=64;spacingRight=4;overflow=hidden;rotatable=0;points=[[0,0.5],[1,0.5]];portConstraint=eastwest;dropTarget=0;" vertex="1" parent="HZIiBSOwdoPRaEt3oadx-675">
          <mxGeometry y="104" width="246" height="26" as="geometry" />
        </mxCell>
        <mxCell id="HZIiBSOwdoPRaEt3oadx-691" value="" style="shape=partialRectangle;top=0;left=0;bottom=0;fillColor=none;align=left;verticalAlign=middle;spacingLeft=4;spacingRight=4;overflow=hidden;rotatable=180;points=[];portConstraint=eastwest;part=1;" vertex="1" connectable="0" parent="HZIiBSOwdoPRaEt3oadx-690">
          <mxGeometry width="54" height="26" as="geometry" />
        </mxCell>
        <mxCell id="HZIiBSOwdoPRaEt3oadx-692" value="TotalCost" style="shape=partialRectangle;top=0;left=0;right=0;bottom=0;align=left;verticalAlign=top;spacingTop=-2;fillColor=none;spacingLeft=64;spacingRight=4;overflow=hidden;rotatable=0;points=[[0,0.5],[1,0.5]];portConstraint=eastwest;dropTarget=0;" vertex="1" parent="HZIiBSOwdoPRaEt3oadx-675">
          <mxGeometry y="130" width="246" height="26" as="geometry" />
        </mxCell>
        <mxCell id="HZIiBSOwdoPRaEt3oadx-693" value="" style="shape=partialRectangle;top=0;left=0;bottom=0;fillColor=none;align=left;verticalAlign=middle;spacingLeft=4;spacingRight=4;overflow=hidden;rotatable=180;points=[];portConstraint=eastwest;part=1;" vertex="1" connectable="0" parent="HZIiBSOwdoPRaEt3oadx-692">
          <mxGeometry width="54" height="26" as="geometry" />
        </mxCell>
        <mxCell id="HZIiBSOwdoPRaEt3oadx-694" value="ShippingAddress" style="shape=partialRectangle;top=0;left=0;right=0;bottom=0;align=left;verticalAlign=top;spacingTop=-2;fillColor=none;spacingLeft=64;spacingRight=4;overflow=hidden;rotatable=0;points=[[0,0.5],[1,0.5]];portConstraint=eastwest;dropTarget=0;" vertex="1" parent="HZIiBSOwdoPRaEt3oadx-675">
          <mxGeometry y="156" width="246" height="26" as="geometry" />
        </mxCell>
        <mxCell id="HZIiBSOwdoPRaEt3oadx-695" value="" style="shape=partialRectangle;top=0;left=0;bottom=0;fillColor=none;align=left;verticalAlign=middle;spacingLeft=4;spacingRight=4;overflow=hidden;rotatable=180;points=[];portConstraint=eastwest;part=1;" vertex="1" connectable="0" parent="HZIiBSOwdoPRaEt3oadx-694">
          <mxGeometry width="54" height="26" as="geometry" />
        </mxCell>
        <mxCell id="HZIiBSOwdoPRaEt3oadx-696" value="CustomerName" style="shape=partialRectangle;top=0;left=0;right=0;bottom=0;align=left;verticalAlign=top;spacingTop=-2;fillColor=none;spacingLeft=64;spacingRight=4;overflow=hidden;rotatable=0;points=[[0,0.5],[1,0.5]];portConstraint=eastwest;dropTarget=0;" vertex="1" parent="HZIiBSOwdoPRaEt3oadx-675">
          <mxGeometry y="182" width="246" height="26" as="geometry" />
        </mxCell>
        <mxCell id="HZIiBSOwdoPRaEt3oadx-697" value="" style="shape=partialRectangle;top=0;left=0;bottom=0;fillColor=none;align=left;verticalAlign=middle;spacingLeft=4;spacingRight=4;overflow=hidden;rotatable=180;points=[];portConstraint=eastwest;part=1;" vertex="1" connectable="0" parent="HZIiBSOwdoPRaEt3oadx-696">
          <mxGeometry width="54" height="26" as="geometry" />
        </mxCell>
        <mxCell id="HZIiBSOwdoPRaEt3oadx-698" value="CustomerEmail" style="shape=partialRectangle;top=0;left=0;right=0;bottom=0;align=left;verticalAlign=top;spacingTop=-2;fillColor=none;spacingLeft=64;spacingRight=4;overflow=hidden;rotatable=0;points=[[0,0.5],[1,0.5]];portConstraint=eastwest;dropTarget=0;" vertex="1" parent="HZIiBSOwdoPRaEt3oadx-675">
          <mxGeometry y="208" width="246" height="26" as="geometry" />
        </mxCell>
        <mxCell id="HZIiBSOwdoPRaEt3oadx-699" value="" style="shape=partialRectangle;top=0;left=0;bottom=0;fillColor=none;align=left;verticalAlign=middle;spacingLeft=4;spacingRight=4;overflow=hidden;rotatable=180;points=[];portConstraint=eastwest;part=1;" vertex="1" connectable="0" parent="HZIiBSOwdoPRaEt3oadx-698">
          <mxGeometry width="54" height="26" as="geometry" />
        </mxCell>
        <mxCell id="HZIiBSOwdoPRaEt3oadx-700" value="OrderDetails" style="swimlane;fontStyle=0;childLayout=stackLayout;horizontal=1;startSize=26;fillColor=default;horizontalStack=0;resizeParent=1;resizeLast=0;collapsible=1;marginBottom=0;swimlaneFillColor=default;align=center;" vertex="1" parent="1">
          <mxGeometry x="1350" y="272" width="282" height="158" as="geometry" />
        </mxCell>
        <mxCell id="HZIiBSOwdoPRaEt3oadx-701" value="OrderDetailID" style="shape=partialRectangle;top=0;left=0;right=0;bottom=0;align=left;verticalAlign=top;spacingTop=-2;fillColor=none;spacingLeft=64;spacingRight=4;overflow=hidden;rotatable=0;points=[[0,0.5],[1,0.5]];portConstraint=eastwest;dropTarget=0;" vertex="1" parent="HZIiBSOwdoPRaEt3oadx-700">
          <mxGeometry y="26" width="282" height="26" as="geometry" />
        </mxCell>
        <mxCell id="HZIiBSOwdoPRaEt3oadx-702" value="" style="shape=partialRectangle;top=0;left=0;bottom=0;fillColor=none;align=left;verticalAlign=middle;spacingLeft=4;spacingRight=4;overflow=hidden;rotatable=180;points=[];portConstraint=eastwest;part=1;" vertex="1" connectable="0" parent="HZIiBSOwdoPRaEt3oadx-701">
          <mxGeometry width="54" height="26" as="geometry" />
        </mxCell>
        <mxCell id="HZIiBSOwdoPRaEt3oadx-705" value="OrderID" style="shape=partialRectangle;top=0;left=0;right=0;bottom=0;align=left;verticalAlign=top;spacingTop=-2;fillColor=none;spacingLeft=64;spacingRight=4;overflow=hidden;rotatable=0;points=[[0,0.5],[1,0.5]];portConstraint=eastwest;dropTarget=0;" vertex="1" parent="HZIiBSOwdoPRaEt3oadx-700">
          <mxGeometry y="52" width="282" height="26" as="geometry" />
        </mxCell>
        <mxCell id="HZIiBSOwdoPRaEt3oadx-706" value="" style="shape=partialRectangle;top=0;left=0;bottom=0;fillColor=none;align=left;verticalAlign=middle;spacingLeft=4;spacingRight=4;overflow=hidden;rotatable=180;points=[];portConstraint=eastwest;part=1;" vertex="1" connectable="0" parent="HZIiBSOwdoPRaEt3oadx-705">
          <mxGeometry width="54" height="26" as="geometry" />
        </mxCell>
        <mxCell id="HZIiBSOwdoPRaEt3oadx-713" value="EquipmentID" style="shape=partialRectangle;top=0;left=0;right=0;bottom=0;align=left;verticalAlign=top;spacingTop=-2;fillColor=none;spacingLeft=64;spacingRight=4;overflow=hidden;rotatable=0;points=[[0,0.5],[1,0.5]];portConstraint=eastwest;dropTarget=0;" vertex="1" parent="HZIiBSOwdoPRaEt3oadx-700">
          <mxGeometry y="78" width="282" height="26" as="geometry" />
        </mxCell>
        <mxCell id="HZIiBSOwdoPRaEt3oadx-714" value="" style="shape=partialRectangle;top=0;left=0;bottom=0;fillColor=none;align=left;verticalAlign=middle;spacingLeft=4;spacingRight=4;overflow=hidden;rotatable=180;points=[];portConstraint=eastwest;part=1;" vertex="1" connectable="0" parent="HZIiBSOwdoPRaEt3oadx-713">
          <mxGeometry width="54" height="26" as="geometry" />
        </mxCell>
        <mxCell id="HZIiBSOwdoPRaEt3oadx-721" value="Quantity" style="shape=partialRectangle;top=0;left=0;right=0;bottom=0;align=left;verticalAlign=top;spacingTop=-2;fillColor=none;spacingLeft=64;spacingRight=4;overflow=hidden;rotatable=0;points=[[0,0.5],[1,0.5]];portConstraint=eastwest;dropTarget=0;" vertex="1" parent="HZIiBSOwdoPRaEt3oadx-700">
          <mxGeometry y="104" width="282" height="26" as="geometry" />
        </mxCell>
        <mxCell id="HZIiBSOwdoPRaEt3oadx-722" value="" style="shape=partialRectangle;top=0;left=0;bottom=0;fillColor=none;align=left;verticalAlign=middle;spacingLeft=4;spacingRight=4;overflow=hidden;rotatable=180;points=[];portConstraint=eastwest;part=1;" vertex="1" connectable="0" parent="HZIiBSOwdoPRaEt3oadx-721">
          <mxGeometry width="54" height="26" as="geometry" />
        </mxCell>
        <mxCell id="HZIiBSOwdoPRaEt3oadx-723" value="Notes" style="shape=partialRectangle;top=0;left=0;right=0;bottom=0;align=left;verticalAlign=top;spacingTop=-2;fillColor=none;spacingLeft=64;spacingRight=4;overflow=hidden;rotatable=0;points=[[0,0.5],[1,0.5]];portConstraint=eastwest;dropTarget=0;" vertex="1" parent="HZIiBSOwdoPRaEt3oadx-700">
          <mxGeometry y="130" width="282" height="26" as="geometry" />
        </mxCell>
        <mxCell id="HZIiBSOwdoPRaEt3oadx-724" value="" style="shape=partialRectangle;top=0;left=0;bottom=0;fillColor=none;align=left;verticalAlign=middle;spacingLeft=4;spacingRight=4;overflow=hidden;rotatable=180;points=[];portConstraint=eastwest;part=1;" vertex="1" connectable="0" parent="HZIiBSOwdoPRaEt3oadx-723">
          <mxGeometry width="54" height="26" as="geometry" />
        </mxCell>
        <mxCell id="HZIiBSOwdoPRaEt3oadx-725" value="UserRoles" style="swimlane;fontStyle=0;childLayout=stackLayout;horizontal=1;startSize=26;fillColor=default;horizontalStack=0;resizeParent=1;resizeLast=0;collapsible=1;marginBottom=0;swimlaneFillColor=default;align=center;" vertex="1" parent="1">
          <mxGeometry x="1350" y="520" width="229" height="104" as="geometry" />
        </mxCell>
        <mxCell id="HZIiBSOwdoPRaEt3oadx-726" value="UserID" style="shape=partialRectangle;top=0;left=0;right=0;bottom=0;align=left;verticalAlign=top;spacingTop=-2;fillColor=none;spacingLeft=64;spacingRight=4;overflow=hidden;rotatable=0;points=[[0,0.5],[1,0.5]];portConstraint=eastwest;dropTarget=0;" vertex="1" parent="HZIiBSOwdoPRaEt3oadx-725">
          <mxGeometry y="26" width="229" height="26" as="geometry" />
        </mxCell>
        <mxCell id="HZIiBSOwdoPRaEt3oadx-727" value="" style="shape=partialRectangle;top=0;left=0;bottom=0;fillColor=none;align=left;verticalAlign=middle;spacingLeft=4;spacingRight=4;overflow=hidden;rotatable=180;points=[];portConstraint=eastwest;part=1;" vertex="1" connectable="0" parent="HZIiBSOwdoPRaEt3oadx-726">
          <mxGeometry width="54" height="26" as="geometry" />
        </mxCell>
        <mxCell id="HZIiBSOwdoPRaEt3oadx-734" value="RoleID" style="shape=partialRectangle;top=0;left=0;right=0;bottom=0;align=left;verticalAlign=top;spacingTop=-2;fillColor=none;spacingLeft=64;spacingRight=4;overflow=hidden;rotatable=0;points=[[0,0.5],[1,0.5]];portConstraint=eastwest;dropTarget=0;" vertex="1" parent="HZIiBSOwdoPRaEt3oadx-725">
          <mxGeometry y="52" width="229" height="26" as="geometry" />
        </mxCell>
        <mxCell id="HZIiBSOwdoPRaEt3oadx-735" value="" style="shape=partialRectangle;top=0;left=0;bottom=0;fillColor=none;align=left;verticalAlign=middle;spacingLeft=4;spacingRight=4;overflow=hidden;rotatable=180;points=[];portConstraint=eastwest;part=1;" vertex="1" connectable="0" parent="HZIiBSOwdoPRaEt3oadx-734">
          <mxGeometry width="54" height="26" as="geometry" />
        </mxCell>
        <mxCell id="HZIiBSOwdoPRaEt3oadx-742" value="UserRoleID" style="shape=partialRectangle;top=0;left=0;right=0;bottom=0;align=left;verticalAlign=top;spacingTop=-2;fillColor=none;spacingLeft=64;spacingRight=4;overflow=hidden;rotatable=0;points=[[0,0.5],[1,0.5]];portConstraint=eastwest;dropTarget=0;" vertex="1" parent="HZIiBSOwdoPRaEt3oadx-725">
          <mxGeometry y="78" width="229" height="26" as="geometry" />
        </mxCell>
        <mxCell id="HZIiBSOwdoPRaEt3oadx-743" value="" style="shape=partialRectangle;top=0;left=0;bottom=0;fillColor=none;align=left;verticalAlign=middle;spacingLeft=4;spacingRight=4;overflow=hidden;rotatable=180;points=[];portConstraint=eastwest;part=1;" vertex="1" connectable="0" parent="HZIiBSOwdoPRaEt3oadx-742">
          <mxGeometry width="54" height="26" as="geometry" />
        </mxCell>
        <mxCell id="HZIiBSOwdoPRaEt3oadx-746" value="UtilizationRecords" style="swimlane;fontStyle=0;childLayout=stackLayout;horizontal=1;startSize=26;fillColor=default;horizontalStack=0;resizeParent=1;resizeLast=0;collapsible=1;marginBottom=0;swimlaneFillColor=default;align=center;" vertex="1" parent="1">
          <mxGeometry x="1654" y="-10" width="258" height="208" as="geometry" />
        </mxCell>
        <mxCell id="HZIiBSOwdoPRaEt3oadx-747" value="UtilizationRecordID" style="shape=partialRectangle;top=0;left=0;right=0;bottom=0;align=left;verticalAlign=top;spacingTop=-2;fillColor=none;spacingLeft=64;spacingRight=4;overflow=hidden;rotatable=0;points=[[0,0.5],[1,0.5]];portConstraint=eastwest;dropTarget=0;" vertex="1" parent="HZIiBSOwdoPRaEt3oadx-746">
          <mxGeometry y="26" width="258" height="26" as="geometry" />
        </mxCell>
        <mxCell id="HZIiBSOwdoPRaEt3oadx-748" value="" style="shape=partialRectangle;top=0;left=0;bottom=0;fillColor=none;align=left;verticalAlign=middle;spacingLeft=4;spacingRight=4;overflow=hidden;rotatable=180;points=[];portConstraint=eastwest;part=1;" vertex="1" connectable="0" parent="HZIiBSOwdoPRaEt3oadx-747">
          <mxGeometry width="54" height="26" as="geometry" />
        </mxCell>
        <mxCell id="HZIiBSOwdoPRaEt3oadx-751" value="EquipmentID" style="shape=partialRectangle;top=0;left=0;right=0;bottom=0;align=left;verticalAlign=top;spacingTop=-2;fillColor=none;spacingLeft=64;spacingRight=4;overflow=hidden;rotatable=0;points=[[0,0.5],[1,0.5]];portConstraint=eastwest;dropTarget=0;" vertex="1" parent="HZIiBSOwdoPRaEt3oadx-746">
          <mxGeometry y="52" width="258" height="26" as="geometry" />
        </mxCell>
        <mxCell id="HZIiBSOwdoPRaEt3oadx-752" value="" style="shape=partialRectangle;top=0;left=0;bottom=0;fillColor=none;align=left;verticalAlign=middle;spacingLeft=4;spacingRight=4;overflow=hidden;rotatable=180;points=[];portConstraint=eastwest;part=1;" vertex="1" connectable="0" parent="HZIiBSOwdoPRaEt3oadx-751">
          <mxGeometry width="54" height="26" as="geometry" />
        </mxCell>
        <mxCell id="HZIiBSOwdoPRaEt3oadx-759" value="UserID" style="shape=partialRectangle;top=0;left=0;right=0;bottom=0;align=left;verticalAlign=top;spacingTop=-2;fillColor=none;spacingLeft=64;spacingRight=4;overflow=hidden;rotatable=0;points=[[0,0.5],[1,0.5]];portConstraint=eastwest;dropTarget=0;" vertex="1" parent="HZIiBSOwdoPRaEt3oadx-746">
          <mxGeometry y="78" width="258" height="26" as="geometry" />
        </mxCell>
        <mxCell id="HZIiBSOwdoPRaEt3oadx-760" value="" style="shape=partialRectangle;top=0;left=0;bottom=0;fillColor=none;align=left;verticalAlign=middle;spacingLeft=4;spacingRight=4;overflow=hidden;rotatable=180;points=[];portConstraint=eastwest;part=1;" vertex="1" connectable="0" parent="HZIiBSOwdoPRaEt3oadx-759">
          <mxGeometry width="54" height="26" as="geometry" />
        </mxCell>
        <mxCell id="HZIiBSOwdoPRaEt3oadx-767" value="StartDate" style="shape=partialRectangle;top=0;left=0;right=0;bottom=0;align=left;verticalAlign=top;spacingTop=-2;fillColor=none;spacingLeft=64;spacingRight=4;overflow=hidden;rotatable=0;points=[[0,0.5],[1,0.5]];portConstraint=eastwest;dropTarget=0;" vertex="1" parent="HZIiBSOwdoPRaEt3oadx-746">
          <mxGeometry y="104" width="258" height="26" as="geometry" />
        </mxCell>
        <mxCell id="HZIiBSOwdoPRaEt3oadx-768" value="" style="shape=partialRectangle;top=0;left=0;bottom=0;fillColor=none;align=left;verticalAlign=middle;spacingLeft=4;spacingRight=4;overflow=hidden;rotatable=180;points=[];portConstraint=eastwest;part=1;" vertex="1" connectable="0" parent="HZIiBSOwdoPRaEt3oadx-767">
          <mxGeometry width="54" height="26" as="geometry" />
        </mxCell>
        <mxCell id="HZIiBSOwdoPRaEt3oadx-769" value="EndDate" style="shape=partialRectangle;top=0;left=0;right=0;bottom=0;align=left;verticalAlign=top;spacingTop=-2;fillColor=none;spacingLeft=64;spacingRight=4;overflow=hidden;rotatable=0;points=[[0,0.5],[1,0.5]];portConstraint=eastwest;dropTarget=0;" vertex="1" parent="HZIiBSOwdoPRaEt3oadx-746">
          <mxGeometry y="130" width="258" height="26" as="geometry" />
        </mxCell>
        <mxCell id="HZIiBSOwdoPRaEt3oadx-770" value="" style="shape=partialRectangle;top=0;left=0;bottom=0;fillColor=none;align=left;verticalAlign=middle;spacingLeft=4;spacingRight=4;overflow=hidden;rotatable=180;points=[];portConstraint=eastwest;part=1;" vertex="1" connectable="0" parent="HZIiBSOwdoPRaEt3oadx-769">
          <mxGeometry width="54" height="26" as="geometry" />
        </mxCell>
        <mxCell id="HZIiBSOwdoPRaEt3oadx-771" value="Purpose" style="shape=partialRectangle;top=0;left=0;right=0;bottom=0;align=left;verticalAlign=top;spacingTop=-2;fillColor=none;spacingLeft=64;spacingRight=4;overflow=hidden;rotatable=0;points=[[0,0.5],[1,0.5]];portConstraint=eastwest;dropTarget=0;" vertex="1" parent="HZIiBSOwdoPRaEt3oadx-746">
          <mxGeometry y="156" width="258" height="26" as="geometry" />
        </mxCell>
        <mxCell id="HZIiBSOwdoPRaEt3oadx-772" value="" style="shape=partialRectangle;top=0;left=0;bottom=0;fillColor=none;align=left;verticalAlign=middle;spacingLeft=4;spacingRight=4;overflow=hidden;rotatable=180;points=[];portConstraint=eastwest;part=1;" vertex="1" connectable="0" parent="HZIiBSOwdoPRaEt3oadx-771">
          <mxGeometry width="54" height="26" as="geometry" />
        </mxCell>
        <mxCell id="HZIiBSOwdoPRaEt3oadx-773" value="Notes" style="shape=partialRectangle;top=0;left=0;right=0;bottom=0;align=left;verticalAlign=top;spacingTop=-2;fillColor=none;spacingLeft=64;spacingRight=4;overflow=hidden;rotatable=0;points=[[0,0.5],[1,0.5]];portConstraint=eastwest;dropTarget=0;" vertex="1" parent="HZIiBSOwdoPRaEt3oadx-746">
          <mxGeometry y="182" width="258" height="26" as="geometry" />
        </mxCell>
        <mxCell id="HZIiBSOwdoPRaEt3oadx-774" value="" style="shape=partialRectangle;top=0;left=0;bottom=0;fillColor=none;align=left;verticalAlign=middle;spacingLeft=4;spacingRight=4;overflow=hidden;rotatable=180;points=[];portConstraint=eastwest;part=1;" vertex="1" connectable="0" parent="HZIiBSOwdoPRaEt3oadx-773">
          <mxGeometry width="54" height="26" as="geometry" />
        </mxCell>
        <mxCell id="HZIiBSOwdoPRaEt3oadx-775" value="Warehouses" style="swimlane;fontStyle=0;childLayout=stackLayout;horizontal=1;startSize=26;fillColor=default;horizontalStack=0;resizeParent=1;resizeLast=0;collapsible=1;marginBottom=0;swimlaneFillColor=default;align=center;" vertex="1" parent="1">
          <mxGeometry x="1682" y="224" width="230" height="104" as="geometry" />
        </mxCell>
        <mxCell id="HZIiBSOwdoPRaEt3oadx-776" value="WarehouseID" style="shape=partialRectangle;top=0;left=0;right=0;bottom=0;align=left;verticalAlign=top;spacingTop=-2;fillColor=none;spacingLeft=64;spacingRight=4;overflow=hidden;rotatable=0;points=[[0,0.5],[1,0.5]];portConstraint=eastwest;dropTarget=0;" vertex="1" parent="HZIiBSOwdoPRaEt3oadx-775">
          <mxGeometry y="26" width="230" height="26" as="geometry" />
        </mxCell>
        <mxCell id="HZIiBSOwdoPRaEt3oadx-777" value="" style="shape=partialRectangle;top=0;left=0;bottom=0;fillColor=none;align=left;verticalAlign=middle;spacingLeft=4;spacingRight=4;overflow=hidden;rotatable=180;points=[];portConstraint=eastwest;part=1;" vertex="1" connectable="0" parent="HZIiBSOwdoPRaEt3oadx-776">
          <mxGeometry width="54" height="26" as="geometry" />
        </mxCell>
        <mxCell id="HZIiBSOwdoPRaEt3oadx-780" value="Name" style="shape=partialRectangle;top=0;left=0;right=0;bottom=0;align=left;verticalAlign=top;spacingTop=-2;fillColor=none;spacingLeft=64;spacingRight=4;overflow=hidden;rotatable=0;points=[[0,0.5],[1,0.5]];portConstraint=eastwest;dropTarget=0;" vertex="1" parent="HZIiBSOwdoPRaEt3oadx-775">
          <mxGeometry y="52" width="230" height="26" as="geometry" />
        </mxCell>
        <mxCell id="HZIiBSOwdoPRaEt3oadx-781" value="" style="shape=partialRectangle;top=0;left=0;bottom=0;fillColor=none;align=left;verticalAlign=middle;spacingLeft=4;spacingRight=4;overflow=hidden;rotatable=180;points=[];portConstraint=eastwest;part=1;" vertex="1" connectable="0" parent="HZIiBSOwdoPRaEt3oadx-780">
          <mxGeometry width="54" height="26" as="geometry" />
        </mxCell>
        <mxCell id="HZIiBSOwdoPRaEt3oadx-782" value="Location" style="shape=partialRectangle;top=0;left=0;right=0;bottom=0;align=left;verticalAlign=top;spacingTop=-2;fillColor=none;spacingLeft=64;spacingRight=4;overflow=hidden;rotatable=0;points=[[0,0.5],[1,0.5]];portConstraint=eastwest;dropTarget=0;" vertex="1" parent="HZIiBSOwdoPRaEt3oadx-775">
          <mxGeometry y="78" width="230" height="26" as="geometry" />
        </mxCell>
        <mxCell id="HZIiBSOwdoPRaEt3oadx-783" value="" style="shape=partialRectangle;top=0;left=0;bottom=0;fillColor=none;align=left;verticalAlign=middle;spacingLeft=4;spacingRight=4;overflow=hidden;rotatable=180;points=[];portConstraint=eastwest;part=1;" vertex="1" connectable="0" parent="HZIiBSOwdoPRaEt3oadx-782">
          <mxGeometry width="54" height="26" as="geometry" />
        </mxCell>
        <mxCell id="HZIiBSOwdoPRaEt3oadx-784" value="EquipmentMovements" style="swimlane;fontStyle=0;childLayout=stackLayout;horizontal=1;startSize=26;fillColor=default;horizontalStack=0;resizeParent=1;resizeLast=0;collapsible=1;marginBottom=0;swimlaneFillColor=default;align=center;" vertex="1" parent="1">
          <mxGeometry x="1690" y="430" width="248" height="234" as="geometry" />
        </mxCell>
        <mxCell id="HZIiBSOwdoPRaEt3oadx-785" value="EquipmentMovementID" style="shape=partialRectangle;top=0;left=0;right=0;bottom=0;align=left;verticalAlign=top;spacingTop=-2;fillColor=none;spacingLeft=64;spacingRight=4;overflow=hidden;rotatable=0;points=[[0,0.5],[1,0.5]];portConstraint=eastwest;dropTarget=0;" vertex="1" parent="HZIiBSOwdoPRaEt3oadx-784">
          <mxGeometry y="26" width="248" height="26" as="geometry" />
        </mxCell>
        <mxCell id="HZIiBSOwdoPRaEt3oadx-786" value="" style="shape=partialRectangle;top=0;left=0;bottom=0;fillColor=none;align=left;verticalAlign=middle;spacingLeft=4;spacingRight=4;overflow=hidden;rotatable=180;points=[];portConstraint=eastwest;part=1;" vertex="1" connectable="0" parent="HZIiBSOwdoPRaEt3oadx-785">
          <mxGeometry width="54" height="26" as="geometry" />
        </mxCell>
        <mxCell id="HZIiBSOwdoPRaEt3oadx-789" value="EquipmentID" style="shape=partialRectangle;top=0;left=0;right=0;bottom=0;align=left;verticalAlign=top;spacingTop=-2;fillColor=none;spacingLeft=64;spacingRight=4;overflow=hidden;rotatable=0;points=[[0,0.5],[1,0.5]];portConstraint=eastwest;dropTarget=0;" vertex="1" parent="HZIiBSOwdoPRaEt3oadx-784">
          <mxGeometry y="52" width="248" height="26" as="geometry" />
        </mxCell>
        <mxCell id="HZIiBSOwdoPRaEt3oadx-790" value="" style="shape=partialRectangle;top=0;left=0;bottom=0;fillColor=none;align=left;verticalAlign=middle;spacingLeft=4;spacingRight=4;overflow=hidden;rotatable=180;points=[];portConstraint=eastwest;part=1;" vertex="1" connectable="0" parent="HZIiBSOwdoPRaEt3oadx-789">
          <mxGeometry width="54" height="26" as="geometry" />
        </mxCell>
        <mxCell id="HZIiBSOwdoPRaEt3oadx-797" value="SourceWarehouseID" style="shape=partialRectangle;top=0;left=0;right=0;bottom=0;align=left;verticalAlign=top;spacingTop=-2;fillColor=none;spacingLeft=64;spacingRight=4;overflow=hidden;rotatable=0;points=[[0,0.5],[1,0.5]];portConstraint=eastwest;dropTarget=0;" vertex="1" parent="HZIiBSOwdoPRaEt3oadx-784">
          <mxGeometry y="78" width="248" height="26" as="geometry" />
        </mxCell>
        <mxCell id="HZIiBSOwdoPRaEt3oadx-798" value="" style="shape=partialRectangle;top=0;left=0;bottom=0;fillColor=none;align=left;verticalAlign=middle;spacingLeft=4;spacingRight=4;overflow=hidden;rotatable=180;points=[];portConstraint=eastwest;part=1;" vertex="1" connectable="0" parent="HZIiBSOwdoPRaEt3oadx-797">
          <mxGeometry width="54" height="26" as="geometry" />
        </mxCell>
        <mxCell id="HZIiBSOwdoPRaEt3oadx-805" value="DestinationWarehouseID" style="shape=partialRectangle;top=0;left=0;right=0;bottom=0;align=left;verticalAlign=top;spacingTop=-2;fillColor=none;spacingLeft=64;spacingRight=4;overflow=hidden;rotatable=0;points=[[0,0.5],[1,0.5]];portConstraint=eastwest;dropTarget=0;" vertex="1" parent="HZIiBSOwdoPRaEt3oadx-784">
          <mxGeometry y="104" width="248" height="26" as="geometry" />
        </mxCell>
        <mxCell id="HZIiBSOwdoPRaEt3oadx-806" value="" style="shape=partialRectangle;top=0;left=0;bottom=0;fillColor=none;align=left;verticalAlign=middle;spacingLeft=4;spacingRight=4;overflow=hidden;rotatable=180;points=[];portConstraint=eastwest;part=1;" vertex="1" connectable="0" parent="HZIiBSOwdoPRaEt3oadx-805">
          <mxGeometry width="54" height="26" as="geometry" />
        </mxCell>
        <mxCell id="HZIiBSOwdoPRaEt3oadx-813" value="UserID" style="shape=partialRectangle;top=0;left=0;right=0;bottom=0;align=left;verticalAlign=top;spacingTop=-2;fillColor=none;spacingLeft=64;spacingRight=4;overflow=hidden;rotatable=0;points=[[0,0.5],[1,0.5]];portConstraint=eastwest;dropTarget=0;" vertex="1" parent="HZIiBSOwdoPRaEt3oadx-784">
          <mxGeometry y="130" width="248" height="26" as="geometry" />
        </mxCell>
        <mxCell id="HZIiBSOwdoPRaEt3oadx-814" value="" style="shape=partialRectangle;top=0;left=0;bottom=0;fillColor=none;align=left;verticalAlign=middle;spacingLeft=4;spacingRight=4;overflow=hidden;rotatable=180;points=[];portConstraint=eastwest;part=1;" vertex="1" connectable="0" parent="HZIiBSOwdoPRaEt3oadx-813">
          <mxGeometry width="54" height="26" as="geometry" />
        </mxCell>
        <mxCell id="HZIiBSOwdoPRaEt3oadx-819" value="MovementDate" style="shape=partialRectangle;top=0;left=0;right=0;bottom=0;align=left;verticalAlign=top;spacingTop=-2;fillColor=none;spacingLeft=64;spacingRight=4;overflow=hidden;rotatable=0;points=[[0,0.5],[1,0.5]];portConstraint=eastwest;dropTarget=0;" vertex="1" parent="HZIiBSOwdoPRaEt3oadx-784">
          <mxGeometry y="156" width="248" height="26" as="geometry" />
        </mxCell>
        <mxCell id="HZIiBSOwdoPRaEt3oadx-820" value="" style="shape=partialRectangle;top=0;left=0;bottom=0;fillColor=none;align=left;verticalAlign=middle;spacingLeft=4;spacingRight=4;overflow=hidden;rotatable=180;points=[];portConstraint=eastwest;part=1;" vertex="1" connectable="0" parent="HZIiBSOwdoPRaEt3oadx-819">
          <mxGeometry width="54" height="26" as="geometry" />
        </mxCell>
        <mxCell id="HZIiBSOwdoPRaEt3oadx-821" value="MovementType" style="shape=partialRectangle;top=0;left=0;right=0;bottom=0;align=left;verticalAlign=top;spacingTop=-2;fillColor=none;spacingLeft=64;spacingRight=4;overflow=hidden;rotatable=0;points=[[0,0.5],[1,0.5]];portConstraint=eastwest;dropTarget=0;" vertex="1" parent="HZIiBSOwdoPRaEt3oadx-784">
          <mxGeometry y="182" width="248" height="26" as="geometry" />
        </mxCell>
        <mxCell id="HZIiBSOwdoPRaEt3oadx-822" value="" style="shape=partialRectangle;top=0;left=0;bottom=0;fillColor=none;align=left;verticalAlign=middle;spacingLeft=4;spacingRight=4;overflow=hidden;rotatable=180;points=[];portConstraint=eastwest;part=1;" vertex="1" connectable="0" parent="HZIiBSOwdoPRaEt3oadx-821">
          <mxGeometry width="54" height="26" as="geometry" />
        </mxCell>
        <mxCell id="HZIiBSOwdoPRaEt3oadx-823" value="Notes" style="shape=partialRectangle;top=0;left=0;right=0;bottom=0;align=left;verticalAlign=top;spacingTop=-2;fillColor=none;spacingLeft=64;spacingRight=4;overflow=hidden;rotatable=0;points=[[0,0.5],[1,0.5]];portConstraint=eastwest;dropTarget=0;" vertex="1" parent="HZIiBSOwdoPRaEt3oadx-784">
          <mxGeometry y="208" width="248" height="26" as="geometry" />
        </mxCell>
        <mxCell id="HZIiBSOwdoPRaEt3oadx-824" value="" style="shape=partialRectangle;top=0;left=0;bottom=0;fillColor=none;align=left;verticalAlign=middle;spacingLeft=4;spacingRight=4;overflow=hidden;rotatable=180;points=[];portConstraint=eastwest;part=1;" vertex="1" connectable="0" parent="HZIiBSOwdoPRaEt3oadx-823">
          <mxGeometry width="54" height="26" as="geometry" />
        </mxCell>
        <mxCell id="HZIiBSOwdoPRaEt3oadx-825" value="Stocks" style="swimlane;fontStyle=0;childLayout=stackLayout;horizontal=1;startSize=26;fillColor=default;horizontalStack=0;resizeParent=1;resizeLast=0;collapsible=1;marginBottom=0;swimlaneFillColor=default;align=center;" vertex="1" parent="1">
          <mxGeometry x="1978" y="430" width="226" height="130" as="geometry" />
        </mxCell>
        <mxCell id="HZIiBSOwdoPRaEt3oadx-826" value="StockID" style="shape=partialRectangle;top=0;left=0;right=0;bottom=0;align=left;verticalAlign=top;spacingTop=-2;fillColor=none;spacingLeft=64;spacingRight=4;overflow=hidden;rotatable=0;points=[[0,0.5],[1,0.5]];portConstraint=eastwest;dropTarget=0;" vertex="1" parent="HZIiBSOwdoPRaEt3oadx-825">
          <mxGeometry y="26" width="226" height="26" as="geometry" />
        </mxCell>
        <mxCell id="HZIiBSOwdoPRaEt3oadx-827" value="" style="shape=partialRectangle;top=0;left=0;bottom=0;fillColor=none;align=left;verticalAlign=middle;spacingLeft=4;spacingRight=4;overflow=hidden;rotatable=180;points=[];portConstraint=eastwest;part=1;" vertex="1" connectable="0" parent="HZIiBSOwdoPRaEt3oadx-826">
          <mxGeometry width="54" height="26" as="geometry" />
        </mxCell>
        <mxCell id="HZIiBSOwdoPRaEt3oadx-830" value="EquipmentID" style="shape=partialRectangle;top=0;left=0;right=0;bottom=0;align=left;verticalAlign=top;spacingTop=-2;fillColor=none;spacingLeft=64;spacingRight=4;overflow=hidden;rotatable=0;points=[[0,0.5],[1,0.5]];portConstraint=eastwest;dropTarget=0;" vertex="1" parent="HZIiBSOwdoPRaEt3oadx-825">
          <mxGeometry y="52" width="226" height="26" as="geometry" />
        </mxCell>
        <mxCell id="HZIiBSOwdoPRaEt3oadx-831" value="" style="shape=partialRectangle;top=0;left=0;bottom=0;fillColor=none;align=left;verticalAlign=middle;spacingLeft=4;spacingRight=4;overflow=hidden;rotatable=180;points=[];portConstraint=eastwest;part=1;" vertex="1" connectable="0" parent="HZIiBSOwdoPRaEt3oadx-830">
          <mxGeometry width="54" height="26" as="geometry" />
        </mxCell>
        <mxCell id="HZIiBSOwdoPRaEt3oadx-838" value="WarehouseID" style="shape=partialRectangle;top=0;left=0;right=0;bottom=0;align=left;verticalAlign=top;spacingTop=-2;fillColor=none;spacingLeft=64;spacingRight=4;overflow=hidden;rotatable=0;points=[[0,0.5],[1,0.5]];portConstraint=eastwest;dropTarget=0;" vertex="1" parent="HZIiBSOwdoPRaEt3oadx-825">
          <mxGeometry y="78" width="226" height="26" as="geometry" />
        </mxCell>
        <mxCell id="HZIiBSOwdoPRaEt3oadx-839" value="" style="shape=partialRectangle;top=0;left=0;bottom=0;fillColor=none;align=left;verticalAlign=middle;spacingLeft=4;spacingRight=4;overflow=hidden;rotatable=180;points=[];portConstraint=eastwest;part=1;" vertex="1" connectable="0" parent="HZIiBSOwdoPRaEt3oadx-838">
          <mxGeometry width="54" height="26" as="geometry" />
        </mxCell>
        <mxCell id="HZIiBSOwdoPRaEt3oadx-846" value="Quantity" style="shape=partialRectangle;top=0;left=0;right=0;bottom=0;align=left;verticalAlign=top;spacingTop=-2;fillColor=none;spacingLeft=64;spacingRight=4;overflow=hidden;rotatable=0;points=[[0,0.5],[1,0.5]];portConstraint=eastwest;dropTarget=0;" vertex="1" parent="HZIiBSOwdoPRaEt3oadx-825">
          <mxGeometry y="104" width="226" height="26" as="geometry" />
        </mxCell>
        <mxCell id="HZIiBSOwdoPRaEt3oadx-847" value="" style="shape=partialRectangle;top=0;left=0;bottom=0;fillColor=none;align=left;verticalAlign=middle;spacingLeft=4;spacingRight=4;overflow=hidden;rotatable=180;points=[];portConstraint=eastwest;part=1;" vertex="1" connectable="0" parent="HZIiBSOwdoPRaEt3oadx-846">
          <mxGeometry width="54" height="26" as="geometry" />
        </mxCell>
        <mxCell id="HZIiBSOwdoPRaEt3oadx-848" value="Transactions" style="swimlane;fontStyle=0;childLayout=stackLayout;horizontal=1;startSize=26;fillColor=default;horizontalStack=0;resizeParent=1;resizeLast=0;collapsible=1;marginBottom=0;swimlaneFillColor=default;align=center;" vertex="1" parent="1">
          <mxGeometry x="1978" y="94" width="242" height="234" as="geometry" />
        </mxCell>
        <mxCell id="HZIiBSOwdoPRaEt3oadx-849" value="TransactionID" style="shape=partialRectangle;top=0;left=0;right=0;bottom=0;align=left;verticalAlign=top;spacingTop=-2;fillColor=none;spacingLeft=64;spacingRight=4;overflow=hidden;rotatable=0;points=[[0,0.5],[1,0.5]];portConstraint=eastwest;dropTarget=0;" vertex="1" parent="HZIiBSOwdoPRaEt3oadx-848">
          <mxGeometry y="26" width="242" height="26" as="geometry" />
        </mxCell>
        <mxCell id="HZIiBSOwdoPRaEt3oadx-850" value="" style="shape=partialRectangle;top=0;left=0;bottom=0;fillColor=none;align=left;verticalAlign=middle;spacingLeft=4;spacingRight=4;overflow=hidden;rotatable=180;points=[];portConstraint=eastwest;part=1;" vertex="1" connectable="0" parent="HZIiBSOwdoPRaEt3oadx-849">
          <mxGeometry width="54" height="26" as="geometry" />
        </mxCell>
        <mxCell id="HZIiBSOwdoPRaEt3oadx-853" value="EquipmentID" style="shape=partialRectangle;top=0;left=0;right=0;bottom=0;align=left;verticalAlign=top;spacingTop=-2;fillColor=none;spacingLeft=64;spacingRight=4;overflow=hidden;rotatable=0;points=[[0,0.5],[1,0.5]];portConstraint=eastwest;dropTarget=0;" vertex="1" parent="HZIiBSOwdoPRaEt3oadx-848">
          <mxGeometry y="52" width="242" height="26" as="geometry" />
        </mxCell>
        <mxCell id="HZIiBSOwdoPRaEt3oadx-854" value="" style="shape=partialRectangle;top=0;left=0;bottom=0;fillColor=none;align=left;verticalAlign=middle;spacingLeft=4;spacingRight=4;overflow=hidden;rotatable=180;points=[];portConstraint=eastwest;part=1;" vertex="1" connectable="0" parent="HZIiBSOwdoPRaEt3oadx-853">
          <mxGeometry width="54" height="26" as="geometry" />
        </mxCell>
        <mxCell id="HZIiBSOwdoPRaEt3oadx-861" value="WarehouseID" style="shape=partialRectangle;top=0;left=0;right=0;bottom=0;align=left;verticalAlign=top;spacingTop=-2;fillColor=none;spacingLeft=64;spacingRight=4;overflow=hidden;rotatable=0;points=[[0,0.5],[1,0.5]];portConstraint=eastwest;dropTarget=0;" vertex="1" parent="HZIiBSOwdoPRaEt3oadx-848">
          <mxGeometry y="78" width="242" height="26" as="geometry" />
        </mxCell>
        <mxCell id="HZIiBSOwdoPRaEt3oadx-862" value="" style="shape=partialRectangle;top=0;left=0;bottom=0;fillColor=none;align=left;verticalAlign=middle;spacingLeft=4;spacingRight=4;overflow=hidden;rotatable=180;points=[];portConstraint=eastwest;part=1;" vertex="1" connectable="0" parent="HZIiBSOwdoPRaEt3oadx-861">
          <mxGeometry width="54" height="26" as="geometry" />
        </mxCell>
        <mxCell id="HZIiBSOwdoPRaEt3oadx-869" value="UserID" style="shape=partialRectangle;top=0;left=0;right=0;bottom=0;align=left;verticalAlign=top;spacingTop=-2;fillColor=none;spacingLeft=64;spacingRight=4;overflow=hidden;rotatable=0;points=[[0,0.5],[1,0.5]];portConstraint=eastwest;dropTarget=0;" vertex="1" parent="HZIiBSOwdoPRaEt3oadx-848">
          <mxGeometry y="104" width="242" height="26" as="geometry" />
        </mxCell>
        <mxCell id="HZIiBSOwdoPRaEt3oadx-870" value="" style="shape=partialRectangle;top=0;left=0;bottom=0;fillColor=none;align=left;verticalAlign=middle;spacingLeft=4;spacingRight=4;overflow=hidden;rotatable=180;points=[];portConstraint=eastwest;part=1;" vertex="1" connectable="0" parent="HZIiBSOwdoPRaEt3oadx-869">
          <mxGeometry width="54" height="26" as="geometry" />
        </mxCell>
        <mxCell id="HZIiBSOwdoPRaEt3oadx-875" value="Quantity" style="shape=partialRectangle;top=0;left=0;right=0;bottom=0;align=left;verticalAlign=top;spacingTop=-2;fillColor=none;spacingLeft=64;spacingRight=4;overflow=hidden;rotatable=0;points=[[0,0.5],[1,0.5]];portConstraint=eastwest;dropTarget=0;" vertex="1" parent="HZIiBSOwdoPRaEt3oadx-848">
          <mxGeometry y="130" width="242" height="26" as="geometry" />
        </mxCell>
        <mxCell id="HZIiBSOwdoPRaEt3oadx-876" value="" style="shape=partialRectangle;top=0;left=0;bottom=0;fillColor=none;align=left;verticalAlign=middle;spacingLeft=4;spacingRight=4;overflow=hidden;rotatable=180;points=[];portConstraint=eastwest;part=1;" vertex="1" connectable="0" parent="HZIiBSOwdoPRaEt3oadx-875">
          <mxGeometry width="54" height="26" as="geometry" />
        </mxCell>
        <mxCell id="HZIiBSOwdoPRaEt3oadx-877" value="OrderDetailID" style="shape=partialRectangle;top=0;left=0;right=0;bottom=0;align=left;verticalAlign=top;spacingTop=-2;fillColor=none;spacingLeft=64;spacingRight=4;overflow=hidden;rotatable=0;points=[[0,0.5],[1,0.5]];portConstraint=eastwest;dropTarget=0;" vertex="1" parent="HZIiBSOwdoPRaEt3oadx-848">
          <mxGeometry y="156" width="242" height="26" as="geometry" />
        </mxCell>
        <mxCell id="HZIiBSOwdoPRaEt3oadx-878" value="" style="shape=partialRectangle;top=0;left=0;bottom=0;fillColor=none;align=left;verticalAlign=middle;spacingLeft=4;spacingRight=4;overflow=hidden;rotatable=180;points=[];portConstraint=eastwest;part=1;" vertex="1" connectable="0" parent="HZIiBSOwdoPRaEt3oadx-877">
          <mxGeometry width="54" height="26" as="geometry" />
        </mxCell>
        <mxCell id="HZIiBSOwdoPRaEt3oadx-885" value="TransactionType" style="shape=partialRectangle;top=0;left=0;right=0;bottom=0;align=left;verticalAlign=top;spacingTop=-2;fillColor=none;spacingLeft=64;spacingRight=4;overflow=hidden;rotatable=0;points=[[0,0.5],[1,0.5]];portConstraint=eastwest;dropTarget=0;" vertex="1" parent="HZIiBSOwdoPRaEt3oadx-848">
          <mxGeometry y="182" width="242" height="26" as="geometry" />
        </mxCell>
        <mxCell id="HZIiBSOwdoPRaEt3oadx-886" value="" style="shape=partialRectangle;top=0;left=0;bottom=0;fillColor=none;align=left;verticalAlign=middle;spacingLeft=4;spacingRight=4;overflow=hidden;rotatable=180;points=[];portConstraint=eastwest;part=1;" vertex="1" connectable="0" parent="HZIiBSOwdoPRaEt3oadx-885">
          <mxGeometry width="54" height="26" as="geometry" />
        </mxCell>
        <mxCell id="HZIiBSOwdoPRaEt3oadx-887" value="TransactionDate" style="shape=partialRectangle;top=0;left=0;right=0;bottom=0;align=left;verticalAlign=top;spacingTop=-2;fillColor=none;spacingLeft=64;spacingRight=4;overflow=hidden;rotatable=0;points=[[0,0.5],[1,0.5]];portConstraint=eastwest;dropTarget=0;" vertex="1" parent="HZIiBSOwdoPRaEt3oadx-848">
          <mxGeometry y="208" width="242" height="26" as="geometry" />
        </mxCell>
        <mxCell id="HZIiBSOwdoPRaEt3oadx-888" value="" style="shape=partialRectangle;top=0;left=0;bottom=0;fillColor=none;align=left;verticalAlign=middle;spacingLeft=4;spacingRight=4;overflow=hidden;rotatable=180;points=[];portConstraint=eastwest;part=1;" vertex="1" connectable="0" parent="HZIiBSOwdoPRaEt3oadx-887">
          <mxGeometry width="54" height="26" as="geometry" />
        </mxCell>
        <mxCell id="HZIiBSOwdoPRaEt3oadx-889" value="WarrantyClaims" style="swimlane;fontStyle=0;childLayout=stackLayout;horizontal=1;startSize=26;fillColor=default;horizontalStack=0;resizeParent=1;resizeLast=0;collapsible=1;marginBottom=0;swimlaneFillColor=default;align=center;" vertex="1" parent="1">
          <mxGeometry x="2240" y="94" width="294" height="208" as="geometry" />
        </mxCell>
        <mxCell id="HZIiBSOwdoPRaEt3oadx-890" value="WarrantyClaimID" style="shape=partialRectangle;top=0;left=0;right=0;bottom=0;align=left;verticalAlign=top;spacingTop=-2;fillColor=none;spacingLeft=64;spacingRight=4;overflow=hidden;rotatable=0;points=[[0,0.5],[1,0.5]];portConstraint=eastwest;dropTarget=0;" vertex="1" parent="HZIiBSOwdoPRaEt3oadx-889">
          <mxGeometry y="26" width="294" height="26" as="geometry" />
        </mxCell>
        <mxCell id="HZIiBSOwdoPRaEt3oadx-891" value="" style="shape=partialRectangle;top=0;left=0;bottom=0;fillColor=none;align=left;verticalAlign=middle;spacingLeft=4;spacingRight=4;overflow=hidden;rotatable=180;points=[];portConstraint=eastwest;part=1;" vertex="1" connectable="0" parent="HZIiBSOwdoPRaEt3oadx-890">
          <mxGeometry width="54" height="26" as="geometry" />
        </mxCell>
        <mxCell id="HZIiBSOwdoPRaEt3oadx-894" value="EquipmentID" style="shape=partialRectangle;top=0;left=0;right=0;bottom=0;align=left;verticalAlign=top;spacingTop=-2;fillColor=none;spacingLeft=64;spacingRight=4;overflow=hidden;rotatable=0;points=[[0,0.5],[1,0.5]];portConstraint=eastwest;dropTarget=0;" vertex="1" parent="HZIiBSOwdoPRaEt3oadx-889">
          <mxGeometry y="52" width="294" height="26" as="geometry" />
        </mxCell>
        <mxCell id="HZIiBSOwdoPRaEt3oadx-895" value="" style="shape=partialRectangle;top=0;left=0;bottom=0;fillColor=none;align=left;verticalAlign=middle;spacingLeft=4;spacingRight=4;overflow=hidden;rotatable=180;points=[];portConstraint=eastwest;part=1;" vertex="1" connectable="0" parent="HZIiBSOwdoPRaEt3oadx-894">
          <mxGeometry width="54" height="26" as="geometry" />
        </mxCell>
        <mxCell id="HZIiBSOwdoPRaEt3oadx-902" value="ClaimDate" style="shape=partialRectangle;top=0;left=0;right=0;bottom=0;align=left;verticalAlign=top;spacingTop=-2;fillColor=none;spacingLeft=64;spacingRight=4;overflow=hidden;rotatable=0;points=[[0,0.5],[1,0.5]];portConstraint=eastwest;dropTarget=0;" vertex="1" parent="HZIiBSOwdoPRaEt3oadx-889">
          <mxGeometry y="78" width="294" height="26" as="geometry" />
        </mxCell>
        <mxCell id="HZIiBSOwdoPRaEt3oadx-903" value="" style="shape=partialRectangle;top=0;left=0;bottom=0;fillColor=none;align=left;verticalAlign=middle;spacingLeft=4;spacingRight=4;overflow=hidden;rotatable=180;points=[];portConstraint=eastwest;part=1;" vertex="1" connectable="0" parent="HZIiBSOwdoPRaEt3oadx-902">
          <mxGeometry width="54" height="26" as="geometry" />
        </mxCell>
        <mxCell id="HZIiBSOwdoPRaEt3oadx-904" value="IssueDescription" style="shape=partialRectangle;top=0;left=0;right=0;bottom=0;align=left;verticalAlign=top;spacingTop=-2;fillColor=none;spacingLeft=64;spacingRight=4;overflow=hidden;rotatable=0;points=[[0,0.5],[1,0.5]];portConstraint=eastwest;dropTarget=0;" vertex="1" parent="HZIiBSOwdoPRaEt3oadx-889">
          <mxGeometry y="104" width="294" height="26" as="geometry" />
        </mxCell>
        <mxCell id="HZIiBSOwdoPRaEt3oadx-905" value="" style="shape=partialRectangle;top=0;left=0;bottom=0;fillColor=none;align=left;verticalAlign=middle;spacingLeft=4;spacingRight=4;overflow=hidden;rotatable=180;points=[];portConstraint=eastwest;part=1;" vertex="1" connectable="0" parent="HZIiBSOwdoPRaEt3oadx-904">
          <mxGeometry width="54" height="26" as="geometry" />
        </mxCell>
        <mxCell id="HZIiBSOwdoPRaEt3oadx-906" value="Resolution" style="shape=partialRectangle;top=0;left=0;right=0;bottom=0;align=left;verticalAlign=top;spacingTop=-2;fillColor=none;spacingLeft=64;spacingRight=4;overflow=hidden;rotatable=0;points=[[0,0.5],[1,0.5]];portConstraint=eastwest;dropTarget=0;" vertex="1" parent="HZIiBSOwdoPRaEt3oadx-889">
          <mxGeometry y="130" width="294" height="26" as="geometry" />
        </mxCell>
        <mxCell id="HZIiBSOwdoPRaEt3oadx-907" value="" style="shape=partialRectangle;top=0;left=0;bottom=0;fillColor=none;align=left;verticalAlign=middle;spacingLeft=4;spacingRight=4;overflow=hidden;rotatable=180;points=[];portConstraint=eastwest;part=1;" vertex="1" connectable="0" parent="HZIiBSOwdoPRaEt3oadx-906">
          <mxGeometry width="54" height="26" as="geometry" />
        </mxCell>
        <mxCell id="HZIiBSOwdoPRaEt3oadx-908" value="ResolutionDate" style="shape=partialRectangle;top=0;left=0;right=0;bottom=0;align=left;verticalAlign=top;spacingTop=-2;fillColor=none;spacingLeft=64;spacingRight=4;overflow=hidden;rotatable=0;points=[[0,0.5],[1,0.5]];portConstraint=eastwest;dropTarget=0;" vertex="1" parent="HZIiBSOwdoPRaEt3oadx-889">
          <mxGeometry y="156" width="294" height="26" as="geometry" />
        </mxCell>
        <mxCell id="HZIiBSOwdoPRaEt3oadx-909" value="" style="shape=partialRectangle;top=0;left=0;bottom=0;fillColor=none;align=left;verticalAlign=middle;spacingLeft=4;spacingRight=4;overflow=hidden;rotatable=180;points=[];portConstraint=eastwest;part=1;" vertex="1" connectable="0" parent="HZIiBSOwdoPRaEt3oadx-908">
          <mxGeometry width="54" height="26" as="geometry" />
        </mxCell>
        <mxCell id="HZIiBSOwdoPRaEt3oadx-910" value="StatusID" style="shape=partialRectangle;top=0;left=0;right=0;bottom=0;align=left;verticalAlign=top;spacingTop=-2;fillColor=none;spacingLeft=64;spacingRight=4;overflow=hidden;rotatable=0;points=[[0,0.5],[1,0.5]];portConstraint=eastwest;dropTarget=0;" vertex="1" parent="HZIiBSOwdoPRaEt3oadx-889">
          <mxGeometry y="182" width="294" height="26" as="geometry" />
        </mxCell>
        <mxCell id="HZIiBSOwdoPRaEt3oadx-911" value="" style="shape=partialRectangle;top=0;left=0;bottom=0;fillColor=none;align=left;verticalAlign=middle;spacingLeft=4;spacingRight=4;overflow=hidden;rotatable=180;points=[];portConstraint=eastwest;part=1;" vertex="1" connectable="0" parent="HZIiBSOwdoPRaEt3oadx-910">
          <mxGeometry width="54" height="26" as="geometry" />
        </mxCell>
        <mxCell id="HZIiBSOwdoPRaEt3oadx-916" style="edgeStyle=orthogonalEdgeStyle;rounded=0;orthogonalLoop=1;jettySize=auto;html=1;" edge="1" parent="1" source="HZIiBSOwdoPRaEt3oadx-534" target="HZIiBSOwdoPRaEt3oadx-588">
          <mxGeometry relative="1" as="geometry" />
        </mxCell>
        <mxCell id="HZIiBSOwdoPRaEt3oadx-918" style="edgeStyle=orthogonalEdgeStyle;rounded=0;orthogonalLoop=1;jettySize=auto;html=1;" edge="1" parent="1" source="HZIiBSOwdoPRaEt3oadx-534" target="HZIiBSOwdoPRaEt3oadx-605">
          <mxGeometry relative="1" as="geometry" />
        </mxCell>
        <mxCell id="HZIiBSOwdoPRaEt3oadx-919" style="edgeStyle=orthogonalEdgeStyle;rounded=0;orthogonalLoop=1;jettySize=auto;html=1;exitX=1;exitY=0.5;exitDx=0;exitDy=0;" edge="1" parent="1" source="HZIiBSOwdoPRaEt3oadx-561" target="HZIiBSOwdoPRaEt3oadx-621">
          <mxGeometry relative="1" as="geometry" />
        </mxCell>
        <mxCell id="HZIiBSOwdoPRaEt3oadx-920" style="edgeStyle=orthogonalEdgeStyle;rounded=0;orthogonalLoop=1;jettySize=auto;html=1;exitX=0;exitY=0.5;exitDx=0;exitDy=0;" edge="1" parent="1" source="HZIiBSOwdoPRaEt3oadx-570" target="HZIiBSOwdoPRaEt3oadx-629">
          <mxGeometry relative="1" as="geometry" />
        </mxCell>
        <mxCell id="HZIiBSOwdoPRaEt3oadx-921" style="edgeStyle=orthogonalEdgeStyle;rounded=0;orthogonalLoop=1;jettySize=auto;html=1;exitX=1;exitY=0.5;exitDx=0;exitDy=0;" edge="1" parent="1" source="HZIiBSOwdoPRaEt3oadx-597" target="HZIiBSOwdoPRaEt3oadx-642">
          <mxGeometry relative="1" as="geometry" />
        </mxCell>
        <mxCell id="HZIiBSOwdoPRaEt3oadx-922" style="edgeStyle=orthogonalEdgeStyle;rounded=0;orthogonalLoop=1;jettySize=auto;html=1;exitX=1;exitY=0.5;exitDx=0;exitDy=0;" edge="1" parent="1" source="HZIiBSOwdoPRaEt3oadx-543" target="HZIiBSOwdoPRaEt3oadx-667">
          <mxGeometry relative="1" as="geometry" />
        </mxCell>
        <mxCell id="HZIiBSOwdoPRaEt3oadx-923" style="edgeStyle=orthogonalEdgeStyle;rounded=0;orthogonalLoop=1;jettySize=auto;html=1;exitX=1;exitY=0.5;exitDx=0;exitDy=0;" edge="1" parent="1" source="HZIiBSOwdoPRaEt3oadx-655" target="HZIiBSOwdoPRaEt3oadx-680">
          <mxGeometry relative="1" as="geometry" />
        </mxCell>
        <mxCell id="HZIiBSOwdoPRaEt3oadx-924" style="edgeStyle=orthogonalEdgeStyle;rounded=0;orthogonalLoop=1;jettySize=auto;html=1;exitX=0;exitY=0.5;exitDx=0;exitDy=0;" edge="1" parent="1" source="HZIiBSOwdoPRaEt3oadx-676" target="HZIiBSOwdoPRaEt3oadx-705">
          <mxGeometry relative="1" as="geometry" />
        </mxCell>
        <mxCell id="HZIiBSOwdoPRaEt3oadx-925" style="edgeStyle=orthogonalEdgeStyle;rounded=0;orthogonalLoop=1;jettySize=auto;html=1;exitX=1;exitY=0.5;exitDx=0;exitDy=0;" edge="1" parent="1" source="HZIiBSOwdoPRaEt3oadx-597" target="HZIiBSOwdoPRaEt3oadx-713">
          <mxGeometry relative="1" as="geometry" />
        </mxCell>
        <mxCell id="HZIiBSOwdoPRaEt3oadx-927" style="edgeStyle=orthogonalEdgeStyle;rounded=0;orthogonalLoop=1;jettySize=auto;html=1;exitX=1;exitY=0.5;exitDx=0;exitDy=0;" edge="1" parent="1" source="HZIiBSOwdoPRaEt3oadx-655" target="HZIiBSOwdoPRaEt3oadx-726">
          <mxGeometry relative="1" as="geometry" />
        </mxCell>
        <mxCell id="HZIiBSOwdoPRaEt3oadx-928" style="edgeStyle=orthogonalEdgeStyle;rounded=0;orthogonalLoop=1;jettySize=auto;html=1;" edge="1" parent="1" source="HZIiBSOwdoPRaEt3oadx-552" target="HZIiBSOwdoPRaEt3oadx-734">
          <mxGeometry relative="1" as="geometry" />
        </mxCell>
        <mxCell id="HZIiBSOwdoPRaEt3oadx-929" style="edgeStyle=orthogonalEdgeStyle;rounded=0;orthogonalLoop=1;jettySize=auto;html=1;" edge="1" parent="1" source="HZIiBSOwdoPRaEt3oadx-655" target="HZIiBSOwdoPRaEt3oadx-759">
          <mxGeometry relative="1" as="geometry" />
        </mxCell>
        <mxCell id="HZIiBSOwdoPRaEt3oadx-930" style="edgeStyle=orthogonalEdgeStyle;rounded=0;orthogonalLoop=1;jettySize=auto;html=1;" edge="1" parent="1" source="HZIiBSOwdoPRaEt3oadx-597" target="HZIiBSOwdoPRaEt3oadx-751">
          <mxGeometry relative="1" as="geometry" />
        </mxCell>
        <mxCell id="HZIiBSOwdoPRaEt3oadx-931" style="edgeStyle=orthogonalEdgeStyle;rounded=0;orthogonalLoop=1;jettySize=auto;html=1;" edge="1" parent="1" source="HZIiBSOwdoPRaEt3oadx-776" target="HZIiBSOwdoPRaEt3oadx-797">
          <mxGeometry relative="1" as="geometry" />
        </mxCell>
        <mxCell id="HZIiBSOwdoPRaEt3oadx-932" style="edgeStyle=orthogonalEdgeStyle;rounded=0;orthogonalLoop=1;jettySize=auto;html=1;" edge="1" parent="1" source="HZIiBSOwdoPRaEt3oadx-776" target="HZIiBSOwdoPRaEt3oadx-805">
          <mxGeometry relative="1" as="geometry" />
        </mxCell>
        <mxCell id="HZIiBSOwdoPRaEt3oadx-933" style="edgeStyle=orthogonalEdgeStyle;rounded=0;orthogonalLoop=1;jettySize=auto;html=1;" edge="1" parent="1" source="HZIiBSOwdoPRaEt3oadx-655" target="HZIiBSOwdoPRaEt3oadx-813">
          <mxGeometry relative="1" as="geometry" />
        </mxCell>
        <mxCell id="HZIiBSOwdoPRaEt3oadx-934" style="edgeStyle=orthogonalEdgeStyle;rounded=0;orthogonalLoop=1;jettySize=auto;html=1;" edge="1" parent="1" source="HZIiBSOwdoPRaEt3oadx-597" target="HZIiBSOwdoPRaEt3oadx-789">
          <mxGeometry relative="1" as="geometry" />
        </mxCell>
        <mxCell id="HZIiBSOwdoPRaEt3oadx-935" style="edgeStyle=orthogonalEdgeStyle;rounded=0;orthogonalLoop=1;jettySize=auto;html=1;" edge="1" parent="1" source="HZIiBSOwdoPRaEt3oadx-776" target="HZIiBSOwdoPRaEt3oadx-838">
          <mxGeometry relative="1" as="geometry" />
        </mxCell>
        <mxCell id="HZIiBSOwdoPRaEt3oadx-936" style="edgeStyle=orthogonalEdgeStyle;rounded=0;orthogonalLoop=1;jettySize=auto;html=1;" edge="1" parent="1" source="HZIiBSOwdoPRaEt3oadx-597" target="HZIiBSOwdoPRaEt3oadx-830">
          <mxGeometry relative="1" as="geometry" />
        </mxCell>
        <mxCell id="HZIiBSOwdoPRaEt3oadx-937" style="edgeStyle=orthogonalEdgeStyle;rounded=0;orthogonalLoop=1;jettySize=auto;html=1;" edge="1" parent="1" source="HZIiBSOwdoPRaEt3oadx-776" target="HZIiBSOwdoPRaEt3oadx-861">
          <mxGeometry relative="1" as="geometry" />
        </mxCell>
        <mxCell id="HZIiBSOwdoPRaEt3oadx-938" style="edgeStyle=orthogonalEdgeStyle;rounded=0;orthogonalLoop=1;jettySize=auto;html=1;" edge="1" parent="1" source="HZIiBSOwdoPRaEt3oadx-597" target="HZIiBSOwdoPRaEt3oadx-853">
          <mxGeometry relative="1" as="geometry" />
        </mxCell>
        <mxCell id="HZIiBSOwdoPRaEt3oadx-939" style="edgeStyle=orthogonalEdgeStyle;rounded=0;orthogonalLoop=1;jettySize=auto;html=1;" edge="1" parent="1" source="HZIiBSOwdoPRaEt3oadx-597" target="HZIiBSOwdoPRaEt3oadx-894">
          <mxGeometry relative="1" as="geometry" />
        </mxCell>
        <mxCell id="HZIiBSOwdoPRaEt3oadx-940" style="edgeStyle=orthogonalEdgeStyle;rounded=0;orthogonalLoop=1;jettySize=auto;html=1;" edge="1" parent="1" source="HZIiBSOwdoPRaEt3oadx-561" target="HZIiBSOwdoPRaEt3oadx-910">
          <mxGeometry relative="1" as="geometry" />
        </mxCell>
        <mxCell id="HZIiBSOwdoPRaEt3oadx-941" style="edgeStyle=orthogonalEdgeStyle;rounded=0;orthogonalLoop=1;jettySize=auto;html=1;" edge="1" parent="1" source="HZIiBSOwdoPRaEt3oadx-701" target="HZIiBSOwdoPRaEt3oadx-877">
          <mxGeometry relative="1" as="geometry" />
        </mxCell>
        <mxCell id="HZIiBSOwdoPRaEt3oadx-942" style="edgeStyle=orthogonalEdgeStyle;rounded=0;orthogonalLoop=1;jettySize=auto;html=1;" edge="1" parent="1" source="HZIiBSOwdoPRaEt3oadx-655" target="HZIiBSOwdoPRaEt3oadx-869">
          <mxGeometry relative="1" as="geometry" />
        </mxCell>
      </root>
    </mxGraphModel>
  </diagram>
</mxfile>
